<svg width="80" height="61" viewBox="0 0 80 61" fill="none" xmlns="http://www.w3.org/2000/svg">
<path d="M75 0H10.5323C7.96046 0 5.80809 1.95105 5.55634 4.51056L0.539945 55.5106C0.250698 58.4512 2.56106 61 5.51593 61H75C77.7614 61 80 58.7614 80 56V5C80 2.23858 77.7614 0 75 0Z" fill="#001B29"/>
<path d="M33.6832 40.986L33.6972 38.382L42.4752 30.514C43.1845 29.8887 43.6652 29.2913 43.9172 28.722C44.1785 28.1527 44.3092 27.5833 44.3092 27.014C44.3092 26.2953 44.1505 25.6513 43.8332 25.082C43.5159 24.5033 43.0772 24.046 42.5172 23.71C41.9572 23.374 41.3132 23.206 40.5852 23.206C39.8385 23.206 39.1712 23.3833 38.5832 23.738C38.0045 24.0833 37.5519 24.5453 37.2252 25.124C36.8985 25.7027 36.7399 26.328 36.7492 27H33.7532C33.7532 25.6933 34.0472 24.55 34.6352 23.57C35.2325 22.5807 36.0492 21.8107 37.0852 21.26C38.1212 20.7 39.3065 20.42 40.6412 20.42C41.9105 20.42 43.0492 20.7093 44.0572 21.288C45.0652 21.8573 45.8585 22.6413 46.4372 23.64C47.0252 24.6387 47.3192 25.7773 47.3192 27.056C47.3192 27.98 47.1979 28.764 46.9552 29.408C46.7125 30.052 46.3485 30.6493 45.8632 31.2C45.3779 31.7507 44.7712 32.348 44.0432 32.992L37.2672 39.04L36.9452 38.2H47.3192V40.986H33.6832Z" fill="white"/>
</svg>
