<svg width="80" height="61" viewBox="0 0 80 61" fill="none" xmlns="http://www.w3.org/2000/svg">
<path d="M75 0H10.5323C7.96046 0 5.80809 1.95105 5.55634 4.51056L0.539945 55.5106C0.250698 58.4512 2.56106 61 5.51593 61H75C77.7614 61 80 58.7614 80 56V5C80 2.23858 77.7614 0 75 0Z" fill="#001B29"/>
<path d="M40.0903 41.378C39.0916 41.378 38.1536 41.1913 37.2763 40.818C36.3989 40.4353 35.6383 39.894 34.9943 39.194C34.3596 38.494 33.8976 37.668 33.6083 36.716L36.4363 35.932C36.7069 36.8 37.1783 37.4673 37.8503 37.934C38.5223 38.3913 39.2689 38.6153 40.0903 38.606C40.8276 38.5967 41.4763 38.424 42.0363 38.088C42.5963 37.752 43.0349 37.2993 43.3523 36.73C43.6696 36.1513 43.8283 35.4887 43.8283 34.742C43.8283 33.622 43.4783 32.698 42.7783 31.97C42.0876 31.242 41.1823 30.878 40.0623 30.878C39.7449 30.878 39.4183 30.9247 39.0823 31.018C38.7556 31.1113 38.4476 31.2327 38.1583 31.382L36.7863 29.072L43.8983 22.786L44.2063 23.626H34.4063V20.84H46.5303V23.626L40.6223 29.31L40.5943 28.358C41.8636 28.358 42.9649 28.6427 43.8983 29.212C44.8316 29.772 45.5503 30.5373 46.0543 31.508C46.5676 32.4693 46.8243 33.5473 46.8243 34.742C46.8243 36.03 46.5209 37.1733 45.9143 38.172C45.3169 39.1707 44.5096 39.9547 43.4923 40.524C42.4843 41.0933 41.3503 41.378 40.0903 41.378Z" fill="white"/>
</svg>
