<svg width="80" height="61" viewBox="0 0 80 61" fill="none" xmlns="http://www.w3.org/2000/svg">
<path d="M75 0H10.5323C7.96046 0 5.80809 1.95105 5.55634 4.51056L0.539945 55.5106C0.250698 58.4512 2.56106 61 5.51593 61H75C77.7614 61 80 58.7614 80 56V5C80 2.23858 77.7614 0 75 0Z" fill="#001B29"/>
<path d="M40.2759 41.42C39.2399 41.42 38.2739 41.21 37.3779 40.79C36.4912 40.3607 35.7306 39.7727 35.0959 39.026C34.4612 38.27 34.0086 37.402 33.7379 36.422L36.5519 35.666C36.7106 36.2633 36.9812 36.7813 37.3639 37.22C37.7559 37.6587 38.2132 37.9993 38.7359 38.242C39.2586 38.4753 39.7999 38.592 40.3599 38.592C41.0972 38.592 41.7646 38.4147 42.3619 38.06C42.9686 37.7053 43.4446 37.2293 43.7899 36.632C44.1446 36.0347 44.3219 35.3767 44.3219 34.658C44.3219 33.9207 44.1399 33.2533 43.7759 32.656C43.4212 32.0587 42.9406 31.5873 42.3339 31.242C41.7366 30.8873 41.0786 30.71 40.3599 30.71C39.5386 30.71 38.8432 30.8733 38.2739 31.2C37.7046 31.5267 37.2612 31.9047 36.9439 32.334L34.3959 31.438L35.0119 20.84H45.8899V23.598H36.5099L37.6999 22.492L37.2099 30.43L36.6359 29.688C37.1679 29.156 37.8026 28.75 38.5399 28.47C39.2772 28.19 40.0099 28.05 40.7379 28.05C41.9886 28.05 43.1039 28.3393 44.0839 28.918C45.0732 29.4967 45.8526 30.2853 46.4219 31.284C46.9912 32.2733 47.2759 33.398 47.2759 34.658C47.2759 35.9087 46.9539 37.0473 46.3099 38.074C45.6659 39.0913 44.8119 39.9033 43.7479 40.51C42.6839 41.1167 41.5266 41.42 40.2759 41.42Z" fill="white"/>
</svg>
