<svg width="80" height="61" viewBox="0 0 80 61" fill="none" xmlns="http://www.w3.org/2000/svg">
<path d="M75 0H10.5323C7.96046 0 5.80809 1.95105 5.55634 4.51056L0.539945 55.5106C0.250698 58.4512 2.56106 61 5.51593 61H75C77.7614 61 80 58.7614 80 56V5C80 2.23858 77.7614 0 75 0Z" fill="#001B29"/>
<path d="M40.1947 41.42C38.888 41.42 37.712 41.112 36.6667 40.496C35.6214 39.8707 34.7907 39.0167 34.1747 37.934C33.568 36.8513 33.2647 35.6193 33.2647 34.238V27.812C33.2647 26.3467 33.568 25.0587 34.1747 23.948C34.7907 22.8373 35.64 21.974 36.7227 21.358C37.8147 20.742 39.07 20.434 40.4887 20.434C41.5527 20.434 42.5514 20.6347 43.4847 21.036C44.418 21.4373 45.2254 22.0347 45.9067 22.828L43.7647 24.83C43.382 24.3353 42.9014 23.9433 42.3227 23.654C41.7534 23.3553 41.142 23.206 40.4887 23.206C39.6487 23.206 38.9114 23.4067 38.2767 23.808C37.642 24.2 37.1427 24.718 36.7787 25.362C36.424 26.006 36.2467 26.6967 36.2467 27.434V31.13L35.6727 30.486C36.2514 29.73 36.97 29.1327 37.8287 28.694C38.6874 28.2553 39.6067 28.036 40.5867 28.036C41.8374 28.036 42.9527 28.33 43.9327 28.918C44.922 29.4967 45.6967 30.2853 46.2567 31.284C46.826 32.2827 47.1107 33.4073 47.1107 34.658C47.1107 35.918 46.7934 37.0613 46.1587 38.088C45.5334 39.1053 44.6934 39.9173 43.6387 40.524C42.5934 41.1213 41.4454 41.42 40.1947 41.42ZM40.1947 38.606C40.9227 38.606 41.5854 38.4287 42.1827 38.074C42.78 37.7193 43.256 37.2433 43.6107 36.646C43.9654 36.0487 44.1427 35.386 44.1427 34.658C44.1427 33.93 43.9654 33.2673 43.6107 32.67C43.2654 32.0727 42.794 31.5967 42.1967 31.242C41.5994 30.8873 40.9367 30.71 40.2087 30.71C39.4807 30.71 38.8134 30.8873 38.2067 31.242C37.6094 31.5967 37.1334 32.0727 36.7787 32.67C36.424 33.2673 36.2467 33.93 36.2467 34.658C36.2467 35.3767 36.424 36.0347 36.7787 36.632C37.1334 37.2293 37.6094 37.71 38.2067 38.074C38.804 38.4287 39.4667 38.606 40.1947 38.606Z" fill="white"/>
</svg>
