<svg width="68" height="36" viewBox="0 0 68 36" fill="none" xmlns="http://www.w3.org/2000/svg">
<path d="M0 18C0 27.9411 8.05888 36 18 36L50 36C59.9411 36 68 27.9411 68 18C68 8.05887 59.9411 0 50 0L18 0C8.05888 0 0 8.05887 0 18Z" fill="#009E60"/>
<path d="M42.763 19.7847C43.23 19.3237 43.494 18.6867 43.5 18.0217C43.498 17.3637 43.242 16.7257 42.779 16.2557L38.861 12.1747C38.763 12.0727 38.632 12.0217 38.5 12.0217C38.375 12.0217 38.25 12.0677 38.154 12.1617C37.955 12.3517 37.948 12.6697 38.139 12.8687L42.062 16.9547C42.225 17.1197 42.345 17.3127 42.417 17.5217H25C24.724 17.5217 24.5 17.7457 24.5 18.0217C24.5 18.2977 24.724 18.5217 25 18.5217H42.411C42.336 18.7297 42.215 18.9197 42.053 19.0797L38.098 23.1297C37.905 23.3267 37.909 23.6437 38.107 23.8367C38.305 24.0287 38.621 24.0257 38.814 23.8277L42.762 19.7847H42.763Z" fill="white"/>
</svg>
