<svg width="76" height="44" viewBox="0 0 76 44" fill="none" xmlns="http://www.w3.org/2000/svg">
<g filter="url(#filter0_d_1192_6142)">
<path d="M4 18C4 27.9411 12.0589 36 22 36L54 36C63.9411 36 72 27.9411 72 18C72 8.05887 63.9411 0 54 0L22 0C12.0589 0 4 8.05887 4 18Z" fill="white"/>
<path d="M46.763 19.7845C47.23 19.3235 47.494 18.6865 47.5 18.0215C47.498 17.3635 47.242 16.7255 46.779 16.2555L42.861 12.1745C42.763 12.0725 42.632 12.0215 42.5 12.0215C42.375 12.0215 42.25 12.0675 42.154 12.1615C41.955 12.3515 41.948 12.6695 42.139 12.8685L46.062 16.9545C46.225 17.1195 46.345 17.3125 46.417 17.5215H29C28.724 17.5215 28.5 17.7455 28.5 18.0215C28.5 18.2975 28.724 18.5215 29 18.5215H46.411C46.336 18.7295 46.215 18.9195 46.053 19.0795L42.098 23.1295C41.905 23.3265 41.909 23.6435 42.107 23.8365C42.305 24.0285 42.621 24.0255 42.814 23.8275L46.762 19.7845H46.763Z" fill="black"/>
</g>
<defs>
<filter id="filter0_d_1192_6142" x="0" y="0" width="76" height="44" filterUnits="userSpaceOnUse" color-interpolation-filters="sRGB">
<feFlood flood-opacity="0" result="BackgroundImageFix"/>
<feColorMatrix in="SourceAlpha" type="matrix" values="0 0 0 0 0 0 0 0 0 0 0 0 0 0 0 0 0 0 127 0" result="hardAlpha"/>
<feOffset dy="4"/>
<feGaussianBlur stdDeviation="2"/>
<feComposite in2="hardAlpha" operator="out"/>
<feColorMatrix type="matrix" values="0 0 0 0 0 0 0 0 0 0 0 0 0 0 0 0 0 0 0.1 0"/>
<feBlend mode="normal" in2="BackgroundImageFix" result="effect1_dropShadow_1192_6142"/>
<feBlend mode="normal" in="SourceGraphic" in2="effect1_dropShadow_1192_6142" result="shape"/>
</filter>
</defs>
</svg>
