<svg width="76" height="44" viewBox="0 0 76 44" fill="none" xmlns="http://www.w3.org/2000/svg">
<g filter="url(#filter0_d_1192_6145)">
<path d="M72 18C72 27.9411 63.9411 36 54 36L22 36C12.0589 36 4 27.9411 4 18C4 8.05887 12.0589 0 22 0L54 0C63.9411 0 72 8.05887 72 18Z" fill="white"/>
<path d="M29.237 19.7845C28.77 19.3235 28.506 18.6865 28.5 18.0215C28.502 17.3635 28.758 16.7255 29.221 16.2555L33.139 12.1745C33.237 12.0725 33.368 12.0215 33.5 12.0215C33.625 12.0215 33.75 12.0675 33.846 12.1615C34.045 12.3515 34.052 12.6695 33.861 12.8685L29.938 16.9545C29.775 17.1195 29.655 17.3125 29.583 17.5215H47C47.276 17.5215 47.5 17.7455 47.5 18.0215C47.5 18.2975 47.276 18.5215 47 18.5215H29.589C29.664 18.7295 29.785 18.9195 29.947 19.0795L33.902 23.1295C34.095 23.3265 34.091 23.6435 33.893 23.8365C33.695 24.0285 33.379 24.0255 33.186 23.8275L29.238 19.7845H29.237Z" fill="black"/>
</g>
<defs>
<filter id="filter0_d_1192_6145" x="0" y="0" width="76" height="44" filterUnits="userSpaceOnUse" color-interpolation-filters="sRGB">
<feFlood flood-opacity="0" result="BackgroundImageFix"/>
<feColorMatrix in="SourceAlpha" type="matrix" values="0 0 0 0 0 0 0 0 0 0 0 0 0 0 0 0 0 0 127 0" result="hardAlpha"/>
<feOffset dy="4"/>
<feGaussianBlur stdDeviation="2"/>
<feComposite in2="hardAlpha" operator="out"/>
<feColorMatrix type="matrix" values="0 0 0 0 0 0 0 0 0 0 0 0 0 0 0 0 0 0 0.1 0"/>
<feBlend mode="normal" in2="BackgroundImageFix" result="effect1_dropShadow_1192_6145"/>
<feBlend mode="normal" in="SourceGraphic" in2="effect1_dropShadow_1192_6145" result="shape"/>
</filter>
</defs>
</svg>
