<svg width="96" height="96" viewBox="0 0 96 96" fill="none" xmlns="http://www.w3.org/2000/svg">
<g clip-path="url(#clip0_3842_12925)">
<path d="M96 0H0V96H96V0Z" fill="white"/>
<path d="M35.081 59.7153C35.081 59.7153 37.7126 58.5007 38.5223 56.0716C39.332 53.6425 48.4413 59.7153 48.4413 59.7153L57.3482 56.0716C57.3482 56.0716 57.3482 58.5007 60.1823 59.7153L53.4009 70.7477C53.4009 70.7477 34.7773 71.7599 34.7773 68.1161C34.7773 64.4724 35.081 59.7153 35.081 59.7153Z" fill="#D7D7D7"/>
<path d="M38.5354 46.7841L38.5234 68.2187L46.8231 75.7086L57.3426 64.9798L57.4245 45.543L38.5354 46.7841Z" fill="#D7D7D7"/>
<path d="M36.8325 33.0034C36.8325 33.0034 36.5926 37.455 36.1912 37.0467C35.7898 36.6385 34.9971 34.6074 34.1857 34.803C33.3743 34.9987 32.5561 36.004 33.1379 39.0454C33.7196 42.0869 34.7045 45.3341 35.919 45.3444C37.1336 45.3546 36.7389 44.1366 37.1387 44.7473C37.5384 45.3579 39.2803 54.8871 47.782 54.9586C56.2838 55.03 58.3913 45.1283 58.5938 45.13C58.7962 45.1317 58.7911 45.739 59.6008 45.7458C60.4105 45.7526 63.0827 40.9165 63.1048 38.285C63.1269 35.6536 62.3241 34.837 61.312 34.8285C60.2998 34.82 59.8712 37.6505 59.6739 37.0416C59.4766 36.4326 57.9235 28.5245 57.3248 27.5073C56.726 26.4901 39.7361 24.7278 38.923 25.1259C38.1099 25.5239 36.6607 29.3581 36.8325 33.0034Z" fill="#EAEAEA"/>
<path d="M33.8656 34.8164C33.8656 34.8164 32.847 24.8717 35.3033 21.6534C37.7595 18.4351 41.4286 15.4293 48.1035 16.0927C54.7783 16.7561 57.403 17.5879 59.8066 20.6446C62.2102 23.7014 62.0112 26.1323 62.1489 30.9886C62.2059 32.9945 60.384 37.2506 59.7767 37.2455C59.1694 37.2404 58.5468 32.5946 57.9548 30.7677C57.9548 30.7677 57.7472 29.7726 55.7281 29.1483C53.709 28.524 40.1257 25.945 39.3126 26.3431C38.4996 26.7411 37.632 33.6167 37.2153 35.0303C36.7985 36.4438 36.6421 37.4526 36.0925 37.0431C35.5428 36.6336 35.4801 36.0343 35.0803 35.4236C34.6805 34.813 34.2654 35.427 33.8656 34.8164Z" fill="#706F6F"/>
<path d="M84.3742 80.0247C84.3742 80.0267 84.3742 80.0267 84.3742 80.0288C84.3438 80.0753 84.3114 80.1199 84.279 80.1664C84.2669 80.1806 84.2568 80.1968 84.2466 80.211C76.1737 91.5551 62.9186 95.9539 47.9348 95.9539C32.949 95.9539 18.5688 89.3462 10.5 78C10.8907 74.338 13.5886 66.8425 19.7991 64.6765C27.9449 61.8344 35.0259 59.5247 35.9024 59.2413C35.9044 59.2393 35.9064 59.2393 35.9064 59.2393C35.9651 59.2211 35.9935 59.2109 35.9935 59.2109C35.9935 59.2109 36.7101 61.4599 38.5259 63.6988C40.3255 65.9134 43.202 68.1178 47.532 68.1178C52.1069 68.1178 55.3256 65.7777 57.3479 63.5571C59.1758 61.553 60.03 59.6482 60.03 59.6482C60.03 59.6482 60.0341 59.6502 60.0422 59.6522C60.5664 59.8546 77.3175 66.3142 79.111 67.5105C80.9329 68.7251 83.9693 74.1543 84.3742 80.0247Z" fill="#F3F3F3"/>
</g>
<defs>
<clipPath id="clip0_3842_12925">
<rect width="96" height="96" rx="48" fill="white"/>
</clipPath>
</defs>
</svg>
