<svg width="32" height="32" viewBox="0 0 32 32" fill="none" xmlns="http://www.w3.org/2000/svg">
<rect width="32" height="32" fill="#009E60"/>
<path d="M29.0002 11.829C29.0002 11.9209 28.9718 12.0115 28.9179 12.0851C26.6701 15.2487 24.4238 18.411 22.176 21.5761L22.0639 21.7345L21.7574 22.1689C21.6808 22.2778 21.5289 22.3047 21.4197 22.2283C21.3104 22.1505 21.2834 22.0005 21.3601 21.8902L21.6751 21.4445L21.7787 21.2973C23.1495 19.3674 24.5217 17.4361 25.8925 15.5076C26.0074 15.3478 25.8925 15.1256 25.6953 15.1256H19.1435C19.0087 15.1256 18.9009 15.0167 18.9009 14.8837V14.8144C18.9009 14.6814 19.0087 14.5724 19.1435 14.5724H26.5041C26.5353 14.5724 26.5665 14.5554 26.585 14.53C26.8745 14.1225 26.8716 14.1296 26.8759 14.1239C27.0958 13.8353 27.1384 13.7532 27.215 13.6443C27.2491 13.5976 27.2165 13.5325 27.1583 13.5325H20.3838C20.249 13.5325 20.1411 13.4235 20.1411 13.2905V13.2212C20.1411 13.0882 20.249 12.9793 20.3838 12.9793H27.6379C27.6691 12.9793 27.6989 12.9637 27.7188 12.9368C27.9274 12.6425 28.1374 12.3482 28.3474 12.0525C28.3801 12.0058 28.3474 11.9407 28.2893 11.9407H21.6056C21.4708 11.9407 21.3629 11.8318 21.3629 11.6988V11.6281C21.3629 11.4951 21.4708 11.3861 21.6056 11.3861H28.556C28.6795 11.3861 28.7902 11.4356 28.8696 11.5163C28.9505 11.5955 29.0002 11.7059 29.0002 11.829Z" fill="#FFB347"/>
<path d="M13.8967 14.8144V14.8837C13.8967 15.0167 13.7888 15.1256 13.654 15.1256H7.10231C6.90506 15.1256 6.79012 15.3478 6.90507 15.5076C8.31134 17.4856 9.7176 19.4651 11.1225 21.4445C11.192 21.5435 11.1906 21.6822 11.104 21.7657C10.9933 21.8746 10.8188 21.8548 10.7336 21.7345C8.82786 19.0491 6.92067 16.3665 5.01348 13.6825C5.03618 13.715 5.05747 13.7461 5.08017 13.7787C4.74102 14.0489 4.56506 14.4875 4.54094 14.9205C4.50688 15.5246 4.73818 16.0948 4.94536 16.6495C5.00922 16.8192 5.07024 16.9904 5.12842 17.1616C5.44061 18.0657 5.93302 19.1934 5.38101 20.1018C5.127 20.5177 4.72967 20.8417 4.25571 20.9705C3.85554 21.0809 3.45679 21.0356 3.05095 21.0356H1.48007C1.33107 21.0356 1.21045 20.9153 1.21045 20.7668C1.21045 20.6182 1.33107 20.4965 1.48007 20.4965H2.56847C3.39435 20.4965 4.37349 20.5956 4.88151 19.7905C5.01064 19.5867 5.0816 19.3547 5.09579 19.1156C5.10856 18.8793 5.05463 18.6586 4.99362 18.4308C4.77366 17.6144 4.36072 16.8659 4.14503 16.0481C4.02157 15.5798 3.96197 15.0888 4.03434 14.6092C4.10955 14.1098 4.34511 13.6145 4.76515 13.3316C4.46999 12.9156 4.17483 12.501 3.87967 12.0851C3.82716 12.0115 3.79878 11.9209 3.79878 11.829C3.79878 11.7059 3.84845 11.5955 3.92933 11.5163C4.0088 11.4356 4.1209 11.3861 4.24294 11.3861H11.1934C11.3268 11.3861 11.4361 11.4951 11.4361 11.6281V11.6988C11.4361 11.8318 11.3268 11.9407 11.1934 11.9407H4.50972C4.45154 11.9407 4.4189 12.0058 4.45154 12.0525C4.66156 12.3482 4.87158 12.6425 5.08017 12.9368C5.09862 12.9637 5.12984 12.9793 5.16106 12.9793H12.4152C12.55 12.9793 12.6579 13.0882 12.6579 13.2212V13.2905C12.6579 13.4235 12.55 13.5325 12.4152 13.5325H5.6407C5.58394 13.5325 5.5513 13.5976 5.58393 13.6443C5.66056 13.7532 5.70313 13.8353 5.92309 14.1239C5.92734 14.1296 5.9245 14.1239 6.21399 14.5286C6.23244 14.5554 6.26365 14.5724 6.29771 14.5724H13.6569C13.7917 14.5724 13.8995 14.6814 13.8995 14.8144H13.8967Z" fill="#FFB347"/>
<path d="M19.4165 11.4441H13.7659L14.7436 9.65857H18.5083L19.4165 11.4441Z" fill="#FFB347"/>
<path d="M11.8835 19.8707V16.5808H12.7439L13.9663 18.6428V16.5808H14.7843V19.8707H13.9193L12.7016 17.8968V19.8707H11.8835Z" fill="white"/>
<path d="M15.1424 19.8707L16.346 16.5808H17.2957L18.4993 19.8707H17.6577L17.4414 19.2498H16.2003L15.9793 19.8707H15.1424ZM16.4212 18.6104H17.2205L16.8255 17.4519L16.4212 18.6104Z" fill="white"/>
<path d="M19.3258 19.8707L18.1176 16.5808H18.9591L19.8007 18.9625L20.6375 16.5808H21.4791L20.2661 19.8707H19.3258Z" fill="white"/>
</svg>
