<svg width="128" height="76" viewBox="0 0 128 76" fill="none" xmlns="http://www.w3.org/2000/svg">
<path d="M114.534 41.0231H118.609L123.925 49.3464V41.0231H128V56.0348H123.925L118.609 47.8106V56.0348H114.534V41.0231ZM106.981 50.2878L105.391 44.8875L103.851 50.2878H106.981ZM107.876 53.5577H102.907L102.211 56.0348H97.7888L103.056 41.0231H107.826L113.093 56.0348H108.571L107.876 53.5577ZM85.3665 41.0231H98.5839V44.7389H94.1118V56.0348H89.7888V44.7389H85.3665V41.0231ZM71.354 51.0805L75.528 50.7832L75.5776 51.2786L75.7267 51.7245L75.8758 52.1209L76.0745 52.4181L76.2236 52.6659L76.4224 52.8145L76.6211 52.9631L76.8696 53.1118L77.118 53.2108L77.3665 53.2604L77.6646 53.3099L77.9627 53.3595L78.4099 53.3099L78.8074 53.2108L79.1553 53.0622L79.4037 52.864L79.6522 52.6163L79.8012 52.3686L79.9006 52.0713V51.5264L79.8012 51.2291L79.6522 50.9814L79.4534 50.7337L79.1056 50.5355L78.6584 50.2878L78.0124 50.0896L77.2174 49.8914L76.5217 49.6932L75.8758 49.4951L75.2795 49.2969L74.7329 49.0987L74.2857 48.851L73.8385 48.6033L73.441 48.3556L73.1429 48.0583L72.8447 47.761L72.5963 47.4638L72.3975 47.117L72.1988 46.7702L72.0497 46.3738L71.9503 45.9775L71.9006 45.5811V45.1352L71.9503 44.5903L72.0497 44.0453L72.2484 43.5003L72.5466 42.9553L72.8944 42.4599L73.2919 42.0635L73.8385 41.6672L74.4348 41.3699L74.7329 41.2213L75.0807 41.0727L75.4783 40.9736L75.9255 40.924L76.8199 40.7754H78.5093L79.1553 40.8249L79.7019 40.924L80.2485 41.0231L80.7453 41.1717L81.1926 41.3699L81.6397 41.5681L81.9876 41.8158L82.3354 42.1131L82.6335 42.4599L82.882 42.8067L83.1304 43.203L83.3292 43.6489L83.4783 44.1444L83.5776 44.6893L83.677 45.2343L79.6025 45.482L79.4534 45.0361L79.3044 44.6398L79.1553 44.293L78.9068 43.9957L78.6087 43.7976L78.2609 43.6489L77.8633 43.5994L77.4658 43.5498L77.0683 43.5994L76.7702 43.6489L76.5217 43.748L76.323 43.8966L76.1242 44.0948L76.0248 44.293L75.9255 44.4912V44.8875L75.9752 45.0857L76.0745 45.2343L76.2236 45.3829L76.4224 45.5316L76.7702 45.6802L77.1677 45.7793L77.7143 45.9279L79.0062 46.2747L80.1491 46.572L81.0435 46.9188L81.7888 47.2656L82.3354 47.6124L82.8323 48.0088L83.2795 48.4547L83.5776 48.9501L83.8261 49.4455L84.0248 49.9905L84.1242 50.5355V51.13L84.0745 51.8732L83.9752 52.5172L83.7267 53.2108L83.3789 53.8054L83.1801 54.1026L82.9814 54.3999L82.7329 54.6476L82.4845 54.8953L82.236 55.0935L81.9379 55.2917L81.6397 55.4898L81.2919 55.688L80.9441 55.7871L80.5963 55.9357L80.1988 56.0348L79.8012 56.1339L78.9068 56.233L77.913 56.2826H77.0186L76.2733 56.1835L75.528 56.0844L74.882 55.9357L74.2857 55.7376L73.7391 55.4403L73.2919 55.143L72.9441 54.7962L72.5963 54.4494L72.2981 54.0531L72.0497 53.6072L71.8509 53.1613L71.6522 52.6659L71.5528 52.1704L71.4534 51.6254L71.354 51.0805ZM64.8944 41.0231H69.2671V49.9905L69.2174 50.6346L69.1677 51.2786L69.0186 51.8732L68.8696 52.4677L68.6211 53.0622L68.3727 53.6072L68.0248 54.1026L67.6273 54.5485L67.2298 54.9449L66.7826 55.2917L66.3354 55.5889L65.8882 55.7871L65.2422 56.0348L64.4969 56.1835L63.7019 56.2826H61.764L61.2174 56.233L60.6211 56.1339L60.0248 56.0348L59.4783 55.9357L58.9814 55.7376L58.5839 55.5394L58.1863 55.2917L57.7888 54.9944L57.441 54.6476L57.0932 54.2513L56.7453 53.8054L56.4969 53.409L56.2981 52.9631L56.1491 52.5172L55.9503 51.8236L55.8509 51.1796L55.7516 50.5355V41.0231H60.0745V50.1887L60.1242 50.7832L60.2236 51.2786L60.323 51.5264L60.4224 51.7245L60.5714 51.9227L60.7205 52.1209L60.8696 52.2695L61.0683 52.4181L61.2671 52.5172L61.4658 52.6163L61.9627 52.765L62.5093 52.8145L63.0062 52.765L63.5031 52.6163L63.7019 52.5172L63.9006 52.4181L64.0994 52.2695L64.2484 52.1209L64.3975 51.9227L64.5466 51.7245L64.646 51.5264L64.7453 51.2786L64.8447 50.7832L64.8944 50.1887V41.0231ZM44.8199 44.4416V52.6163H46.559L47.0559 52.5668L47.5031 52.4677L47.8509 52.3191L48.0994 52.1209L48.3478 51.8732L48.5963 51.5264L48.7453 51.1796L48.8944 50.7337L48.9938 50.1391L49.0435 49.396L49.0932 48.5537L49.0435 48.0088V47.4638L48.9938 46.9683L48.8944 46.572L48.795 46.1756L48.646 45.8288L48.4969 45.5316L48.3478 45.2839L48.1491 45.0857L47.9006 44.9371L47.6522 44.7389L47.354 44.6398L47.0559 44.5407L46.7081 44.4912L46.3106 44.4416H44.8199ZM40.4969 41.0231H46.9565L47.8509 41.0727L48.6956 41.1717L49.3913 41.3204L50.0373 41.5681L50.5838 41.8654L51.1304 42.2617L51.5776 42.658L51.9752 43.1535L52.323 43.6985L52.6708 44.293L52.9193 44.8875L53.118 45.5811L53.2671 46.2747L53.3665 46.9683L53.4161 47.7115L53.4658 48.4547L53.4161 49.5942L53.3168 50.6346L53.1677 51.4768L52.9193 52.22L52.6708 52.864L52.323 53.409L51.9255 53.954L51.5279 54.4494L51.0311 54.8458L50.5838 55.1926L50.087 55.4403L49.5404 55.6385L48.8447 55.7871L48.1988 55.9357L47.5528 56.0348H40.4969V41.0231ZM24.0497 41.0231H28.1242L33.441 49.3464V41.0231H37.5652V56.0348H33.441L28.1739 47.8106V56.0348H24.0497V41.0231ZM16.5466 41.0231H20.9193V56.0348H16.5466V41.0231ZM0 41.0231H4.37267V46.2747H9.14286V41.0231H13.5155V56.0348H9.14286V49.941H4.37267V56.0348H0V41.0231Z" fill="white"/>
<path d="M98.1862 72.5311L100.919 72.3329L100.969 72.6797L101.068 72.977L101.168 73.2247L101.317 73.4229L101.565 73.7201L101.863 73.8688L102.211 74.0174L102.559 74.0669L102.857 74.0174L103.155 73.9679L103.354 73.8688L103.553 73.7201L103.702 73.5715L103.801 73.3733L103.851 73.2247V72.8284L103.801 72.6302L103.702 72.4816L103.553 72.3329L103.354 72.1843L103.006 72.0357L102.609 71.887L102.062 71.7384L101.168 71.4907L100.422 71.1934L100.124 71.0448L99.826 70.8962L99.5776 70.698L99.3291 70.4998L99.1303 70.3016L98.9813 70.1035L98.8322 69.9053L98.7328 69.6576L98.6335 69.4098L98.5838 69.1621L98.5341 68.8649V68.2208L98.6335 67.8245L98.7825 67.4776L98.9316 67.1308L99.18 66.784L99.4782 66.5363L99.826 66.2391L100.224 66.0409L100.671 65.8923L101.217 65.7436L101.814 65.6941L102.509 65.6445H102.956L103.354 65.6941L103.751 65.7436L104.099 65.8427L104.447 65.9418L104.745 66.0409L104.994 66.1895L105.242 66.3877L105.491 66.5859L105.689 66.784L105.838 67.0318L106.037 67.2795L106.137 67.5767L106.236 67.9235L106.335 68.2703L106.385 68.6171L103.652 68.8153L103.602 68.5181L103.503 68.2208L103.354 68.0226L103.205 67.8245L103.006 67.6758L102.758 67.5767L102.509 67.5272H102.012L101.764 67.5767L101.615 67.6263L101.466 67.7254L101.366 67.874L101.267 68.0226L101.217 68.1713V68.419L101.267 68.5181L101.317 68.6171L101.416 68.7162L101.565 68.8153L101.764 68.9144L102.062 69.0135L102.41 69.1126L103.255 69.3108L104.05 69.5585L104.646 69.7567L105.143 70.0044L105.491 70.2521L105.838 70.4998L106.087 70.7971L106.335 71.0943L106.484 71.4411L106.584 71.7879L106.683 72.1843V73.0761L106.584 73.522L106.435 73.9679L106.186 74.3642L105.938 74.7606L105.59 75.0578L105.242 75.3551L104.795 75.6028L104.298 75.7514L103.801 75.9001L103.205 75.9992H101.963L101.416 75.9496L100.969 75.8505L100.522 75.7514L100.124 75.6524L99.7763 75.4542L99.4782 75.256L99.2297 75.0083L98.9813 74.7606L98.8322 74.5128L98.6335 74.2156L98.4844 73.9183L98.385 73.5715L98.2856 73.2743L98.2359 72.8779L98.1862 72.5311ZM90.5341 69.9053H91.7763L92.0744 69.8557L92.5713 69.7567L92.6707 69.7071L92.8198 69.6576L92.9192 69.5585L93.0185 69.4098L93.1676 69.1621L93.2173 68.8649L93.1676 68.6171L93.1179 68.419L93.0185 68.2703L92.9192 68.1217L92.7204 67.9731L92.5216 67.9235L92.1738 67.874L91.826 67.8245H90.5341V69.9053ZM87.6521 75.8505V65.8427H93.1179L93.6645 65.8923L94.1614 65.9418L94.5092 66.0904L94.8571 66.2391L95.1552 66.4372L95.4533 66.6849L95.7018 66.9822L95.8508 67.329L95.9999 67.7254L96.0993 68.1217V69.0135L96.0496 69.3603L95.9502 69.7071L95.8012 70.0539L95.6024 70.3512L95.4036 70.5989L95.1552 70.8466L94.8571 71.0448L94.4098 71.243L93.8633 71.4411L94.3105 71.5898L94.6086 71.7879L94.8074 71.9861L95.0558 72.3329L95.3043 72.6797L95.4533 72.9274L96.8943 75.8505H93.6148L92.0248 72.7788L91.7763 72.2834L91.5279 71.9861L91.3788 71.887L91.18 71.8375L90.9813 71.7879H90.5341V75.8505H87.6521ZM77.267 65.8427H85.0185V67.9731H80.149V69.5585H84.6707V71.5898H80.149V73.5715H85.1676V75.8505H77.267V65.8427ZM65.4906 65.8427H68.1738L71.7018 71.3916V65.8427H74.4347V75.8505H71.7018L68.2235 70.3512V75.8505H65.4906V65.8427ZM53.6645 65.8427H56.3974L59.9254 71.3916V65.8427H62.6583V75.8505H59.9254L56.3974 70.3512V75.8505H53.6645V65.8427ZM47.8011 65.8427H50.6831V75.8505H47.8011V65.8427ZM40.2483 70.1035H40.944L41.3415 70.0539L41.6396 70.0044L41.9378 69.9053L42.1365 69.8062L42.2856 69.608L42.385 69.4098L42.4347 69.2117L42.4844 69.0135L42.4347 68.7658L42.385 68.5676L42.2856 68.3694L42.1862 68.1713L41.9875 68.0226L41.739 67.9235L41.4409 67.874H40.2483V70.1035ZM37.3167 65.8427H42.5341L42.8819 65.8923L43.2297 65.9418L43.5279 66.0409L43.7763 66.14L44.0744 66.2886L44.2732 66.4372L44.5216 66.6354L44.6707 66.8336L44.8198 67.0813L44.9688 67.329L45.0682 67.5767L45.1676 67.874L45.2173 68.2208L45.267 68.5181V69.2612L45.2173 69.608L45.1676 69.9548L45.0682 70.2521L44.9688 70.5494L44.8198 70.7971L44.621 71.0448L44.4223 71.2925L44.2235 71.4907L43.9254 71.6393L43.6769 71.7879L43.3291 71.887L43.031 71.9861L42.6334 72.0852L42.2359 72.1348H40.2483V75.8505H37.3167V65.8427ZM26.4844 72.5311L29.2173 72.3329L29.3167 72.6797L29.3664 72.977L29.4657 73.2247L29.6148 73.4229L29.8633 73.7201L30.1614 73.8688L30.5092 74.0174L30.9067 74.0669L31.1552 74.0174L31.4533 73.9679L31.6521 73.8688L31.8508 73.7201L31.9999 73.5715L32.0993 73.3733L32.149 73.2247L32.1987 73.0265L32.149 72.8284L32.0993 72.6302L31.9999 72.4816L31.8508 72.3329L31.6521 72.1843L31.3042 72.0357L30.9067 71.887L30.3601 71.7384L29.4657 71.4907L28.7204 71.1934L28.4223 71.0448L28.1241 70.8962L27.8757 70.698L27.6272 70.4998L27.4782 70.3016L27.2794 70.1035L27.1303 69.9053L27.0309 69.6576L26.9316 69.4098L26.8819 69.1621L26.8322 68.8649V68.5676L26.8819 68.2208L26.9316 67.8245L27.0806 67.4776L27.2297 67.1308L27.4782 66.784L27.7763 66.5363L28.1241 66.2391L28.5216 66.0409L28.9688 65.8923L29.5154 65.7436L30.1117 65.6941L30.8074 65.6445H31.2546L31.6521 65.6941L32.0496 65.7436L32.3974 65.8427L32.7452 65.9418L33.0434 66.0409L33.2918 66.1895L33.59 66.3877L33.7887 66.5859L33.9875 66.784L34.1862 67.0318L34.3353 67.2795L34.4347 67.5767L34.5341 67.9235L34.6334 68.2703L34.6831 68.6171L31.9502 68.8153L31.9005 68.5181L31.8011 68.2208L31.6521 68.0226L31.503 67.8245L31.3042 67.6758L31.1055 67.5767L30.8074 67.5272H30.3105L30.1117 67.5767L29.9129 67.6263L29.7639 67.7254L29.6645 67.874L29.5651 68.0226L29.5154 68.1713V68.419L29.5651 68.5181L29.6148 68.6171L29.7142 68.7162L29.8633 68.8153L30.062 68.9144L30.3601 69.0135L30.708 69.1126L31.6024 69.3108L32.3477 69.5585L32.944 69.7567L33.4409 70.0044L33.7887 70.2521L34.1365 70.4998L34.385 70.7971L34.6334 71.0943L34.7825 71.4411L34.8819 71.7879L34.9813 72.1843V73.0761L34.8819 73.522L34.7328 73.9679L34.4844 74.3642L34.2359 74.7606L33.8881 75.0578L33.5403 75.3551L33.0931 75.6028L32.6459 75.7514L32.0993 75.9001L31.503 75.9992H30.2608L29.7142 75.9496L29.267 75.8505L28.8198 75.7514L28.4223 75.6524L28.0744 75.4542L27.7763 75.256L27.5278 75.0083L27.3291 74.7606L27.1303 74.5128L26.9316 74.2156L26.7825 73.9183L26.6831 73.5715L26.5837 73.2743L26.5341 72.8779L26.4844 72.5311Z" fill="white"/>
<path d="M23.3542 70.1543H11.0312V70.9965H23.3542V70.1543Z" fill="white"/>
<path d="M121.34 69.8574H109.066V70.6997H121.34V69.8574Z" fill="white"/>
<path d="M100.447 6.33328C100.447 6.60164 100.364 6.86587 100.206 7.08056C93.6474 16.3122 87.0925 25.5397 80.5335 34.7755L80.2064 35.2379L79.312 36.5054C79.0884 36.8233 78.6453 36.9017 78.3265 36.6788C78.0076 36.4517 77.9289 36.0141 78.1525 35.692L79.0718 34.3915L79.3741 33.9621C83.3741 28.3307 87.3782 22.6951 91.3782 17.0677C91.7136 16.6012 91.3782 15.953 90.8026 15.953H71.6846C71.2913 15.953 70.9766 15.6351 70.9766 15.247V15.0447C70.9766 14.6566 71.2913 14.3387 71.6846 14.3387H93.1629C93.254 14.3387 93.3451 14.2892 93.3989 14.2148C94.2436 13.0258 94.2354 13.0464 94.2478 13.0299C94.8896 12.1877 95.0138 11.9482 95.2374 11.6303C95.3368 11.4941 95.2416 11.3042 95.0718 11.3042H75.3037C74.9103 11.3042 74.5956 10.9863 74.5956 10.5982V10.3959C74.5956 10.0078 74.9103 9.68986 75.3037 9.68986H96.4714C96.5625 9.68986 96.6494 9.64445 96.7074 9.566C97.3161 8.70725 97.9289 7.84849 98.5418 6.9856C98.637 6.84936 98.5418 6.65944 98.372 6.65944H78.8689C78.4755 6.65944 78.1608 6.34154 78.1608 5.95344V5.74701C78.1608 5.35892 78.4755 5.04102 78.8689 5.04102H99.1505C99.5107 5.04102 99.8337 5.18552 100.066 5.42085C100.302 5.65205 100.447 5.97409 100.447 6.33328Z" fill="#FFB347"/>
<path d="M56.3741 15.0447V15.247C56.3741 15.6351 56.0594 15.953 55.666 15.953H36.548C35.9724 15.953 35.637 16.6012 35.9724 17.0677C40.076 22.8396 44.1795 28.6155 48.2789 34.3915C48.4818 34.6805 48.4776 35.0851 48.225 35.3287C47.9021 35.6466 47.3927 35.5888 47.1443 35.2379C41.5832 27.4017 36.018 19.5738 30.4528 11.7418C30.519 11.8368 30.5811 11.9276 30.6474 12.0225C29.6577 12.8111 29.1443 14.091 29.0739 15.3544C28.9745 17.1173 29.6495 18.7811 30.254 20.3995C30.4403 20.895 30.6184 21.3946 30.7882 21.8941C31.6991 24.5323 33.136 27.8228 31.5252 30.4734C30.784 31.6872 29.6246 32.6327 28.2416 33.0084C27.0739 33.3304 25.9103 33.1983 24.7261 33.1983H20.1422C19.7074 33.1983 19.3555 32.8474 19.3555 32.4139C19.3555 31.9804 19.7074 31.6253 20.1422 31.6253H23.3182C25.7281 31.6253 28.5853 31.9143 30.0677 29.5651C30.4445 28.9706 30.6515 28.2935 30.6929 27.5958C30.7302 26.9063 30.5729 26.2622 30.3948 25.5975C29.753 23.2153 28.548 21.0312 27.9186 18.6449C27.5584 17.2783 27.3845 15.8457 27.5956 14.4461C27.8151 12.9886 28.5025 11.5436 29.7281 10.7179C28.8669 9.50407 28.0056 8.29438 27.1443 7.08056C26.9911 6.86587 26.9083 6.60164 26.9083 6.33328C26.9083 5.97409 27.0532 5.65205 27.2892 5.42085C27.5211 5.18552 27.8482 5.04102 28.2043 5.04102H48.4859C48.8751 5.04102 49.194 5.35892 49.194 5.74701V5.95344C49.194 6.34154 48.8751 6.65944 48.4859 6.65944H28.9828C28.813 6.65944 28.7178 6.84936 28.813 6.9856C29.4259 7.84849 30.0387 8.70725 30.6474 9.566C30.7012 9.64445 30.7923 9.68986 30.8834 9.68986H52.0511C52.4445 9.68986 52.7592 10.0078 52.7592 10.3959V10.5982C52.7592 10.9863 52.4445 11.3042 52.0511 11.3042H32.283C32.1174 11.3042 32.0221 11.4941 32.1174 11.6303C32.341 11.9482 32.4652 12.1877 33.107 13.0299C33.1194 13.0464 33.1112 13.0299 33.9559 14.2107C34.0097 14.2892 34.1008 14.3387 34.2002 14.3387H55.6743C56.0677 14.3387 56.3824 14.6566 56.3824 15.0447H56.3741Z" fill="#FFB347"/>
<path d="M72.4808 5.21034H55.9922L58.8452 0H69.8307L72.4808 5.21034Z" fill="#FFB347"/>
<path d="M50.5 29.7992V20.1992H53.0106L56.5775 26.2161V20.1992H58.9646V29.7992H56.4403L52.8871 24.0392V29.7992H50.5Z" fill="white"/>
<path d="M60.0095 29.7992L63.5215 20.1992H66.2927L69.8048 29.7992H67.3491L66.718 27.9874H63.0962L62.4514 29.7992H60.0095ZM63.741 26.1215H66.0732L64.9208 22.7412L63.741 26.1215Z" fill="white"/>
<path d="M72.2167 29.7992L68.691 20.1992H71.1467L73.6023 27.1491L76.0443 20.1992H78.5L74.9605 29.7992H72.2167Z" fill="white"/>
</svg>
