<svg width="172" height="173" viewBox="0 0 172 173" fill="none" xmlns="http://www.w3.org/2000/svg">
<path d="M154.199 81.5739C157.275 81.331 159.988 83.6297 160 86.7152C160.056 101.461 155.733 115.938 147.516 128.283C138.264 142.182 124.611 152.57 108.747 157.78C92.8839 162.99 75.7302 162.72 60.0385 157.014C44.3469 151.308 31.0271 140.495 22.2164 126.312C13.4058 112.129 9.61502 95.3971 11.4525 78.8015C13.29 62.2058 20.6491 46.7085 32.3491 34.7963C44.049 22.884 59.4115 15.2474 75.9714 13.1119C90.6787 11.2152 105.573 13.7553 118.767 20.3398C121.528 21.7177 122.386 25.168 120.806 27.8178C119.225 30.4677 115.804 31.3098 113.025 29.9686C101.998 24.6464 89.6233 22.6177 77.4005 24.1939C63.3244 26.0092 50.266 32.5004 40.3209 42.626C30.3757 52.7516 24.1203 65.9246 22.5585 80.0311C20.9966 94.1376 24.2188 108.36 31.708 120.416C39.1972 132.472 50.5192 141.662 63.8574 146.513C77.1955 151.364 91.7764 151.593 105.26 147.164C118.745 142.735 130.35 133.905 138.215 122.091C145.044 111.832 148.708 99.8395 148.823 87.5958C148.852 84.5104 151.123 81.8169 154.199 81.5739Z" fill="#F9B217"/>
<path d="M47.5 68.5L85.3002 104.827C85.69 105.202 86.307 105.199 86.6931 104.821L161.5 31.5" stroke="#F9B217" stroke-width="12" stroke-linecap="round"/>
</svg>
