<svg width="159" height="94" viewBox="0 0 159 94" fill="none" xmlns="http://www.w3.org/2000/svg">
<path d="M141.661 50.7361H146.7L153.276 61.0307V50.7361H158.316V69.3032H153.276L146.7 59.1311V69.3032H141.661V50.7361ZM132.319 62.195L130.352 55.5157L128.447 62.195H132.319ZM133.425 66.2393H127.28L126.419 69.3032H120.949L127.464 50.7361H133.364L139.878 69.3032H134.286L133.425 66.2393ZM105.585 50.7361H121.933V55.3319H116.401V69.3032H111.055V55.3319H105.585V50.7361ZM88.2537 63.1754L93.4162 62.8078L93.4776 63.4206L93.662 63.9721L93.8464 64.4623L94.0922 64.8299L94.2766 65.1363L94.5224 65.3202L94.7682 65.504L95.0755 65.6878L95.3828 65.8104L95.6901 65.8717L96.0588 65.9329L96.4276 65.9942L96.9807 65.9329L97.4724 65.8104L97.9026 65.6266L98.2099 65.3814L98.5172 65.0751L98.7015 64.7687L98.8245 64.401V63.7269L98.7015 63.3593L98.5172 63.0529L98.2713 62.7465L97.8411 62.5014L97.288 62.195L96.4891 61.9499L95.5057 61.7048L94.6453 61.4597L93.8464 61.2146L93.1089 60.9694L92.4328 60.7243L91.8797 60.4179L91.3266 60.1116L90.8349 59.8052L90.4662 59.4375L90.0974 59.0698L89.7901 58.7022L89.5443 58.2732L89.2985 57.8443L89.1141 57.3541L88.9912 56.8638L88.9297 56.3736V55.8221L88.9912 55.1481L89.1141 54.474L89.3599 53.8L89.7287 53.1259L90.1589 52.5131L90.6505 52.0229L91.3266 51.5327L92.0641 51.165L92.4328 50.9812L92.863 50.7974L93.3547 50.6748L93.9078 50.6135L95.0141 50.4297H97.1036L97.9026 50.491L98.5786 50.6135L99.2547 50.7361L99.8692 50.9199L100.422 51.165L100.975 51.4101L101.406 51.7165L101.836 52.0842L102.205 52.5131L102.512 52.9421L102.819 53.4323L103.065 53.9838L103.249 54.5966L103.372 55.2706L103.495 55.9447L98.4557 56.2511L98.2713 55.6996L98.087 55.2093L97.9026 54.7804L97.5953 54.4127L97.2265 54.1676L96.7963 53.9838L96.3047 53.9225L95.813 53.8612L95.3214 53.9225L94.9526 53.9838L94.6453 54.1063L94.3995 54.2902L94.1536 54.5353L94.0307 54.7804L93.9078 55.0255V55.5157L93.9693 55.7608L94.0922 55.9447L94.2766 56.1285L94.5224 56.3123L94.9526 56.4962L95.4443 56.6187L96.1203 56.8026L97.7182 57.2315L99.1317 57.5992L100.238 58.0281L101.16 58.4571L101.836 58.886L102.45 59.3762L103.004 59.9277L103.372 60.5405L103.68 61.1533L103.925 61.8273L104.048 62.5014V63.2367L103.987 64.1559L103.864 64.9525L103.557 65.8104L103.127 66.5457L102.881 66.9134L102.635 67.281L102.328 67.5874L102.02 67.8938L101.713 68.1389L101.344 68.384L100.975 68.6292L100.545 68.8743L100.115 68.9968L99.6849 69.1807L99.1932 69.3032L98.7015 69.4258L97.5953 69.5483L96.3661 69.6096H95.2599L94.338 69.487L93.4162 69.3645L92.6172 69.1807L91.8797 68.9355L91.2037 68.5679L90.6505 68.2002L90.2203 67.7713L89.7901 67.3423L89.4214 66.8521L89.1141 66.3006L88.8683 65.7491L88.6224 65.1363L88.4995 64.5236L88.3766 63.8495L88.2537 63.1754ZM80.2641 50.7361H85.6724V61.8273L85.611 62.6239L85.5495 63.4206L85.3652 64.1559L85.1808 64.8912L84.8735 65.6266L84.5662 66.3006L84.136 66.9134L83.6443 67.4649L83.1527 67.9551L82.5995 68.384L82.0464 68.7517L81.4933 68.9968L80.6943 69.3032L79.7725 69.487L78.7891 69.6096H76.3923L75.7162 69.5483L74.9788 69.4258L74.2413 69.3032L73.5652 69.1807L72.9506 68.9355L72.459 68.6904L71.9673 68.384L71.4756 68.0164L71.0454 67.5874L70.6152 67.0972L70.185 66.5457L69.8777 66.0555L69.6319 65.504L69.4475 64.9525L69.2017 64.0946L69.0788 63.298L68.9559 62.5014V50.7361H74.3027V62.0724L74.3642 62.8078L74.4871 63.4206L74.61 63.7269L74.7329 63.9721L74.9173 64.2172L75.1017 64.4623L75.286 64.6461L75.5319 64.8299L75.7777 64.9525L76.0235 65.0751L76.6381 65.2589L77.3142 65.3202L77.9287 65.2589L78.5433 65.0751L78.7891 64.9525L79.035 64.8299L79.2808 64.6461L79.4652 64.4623L79.6496 64.2172L79.8339 63.9721L79.9569 63.7269L80.0798 63.4206L80.2027 62.8078L80.2641 62.0724V50.7361ZM55.4351 54.9642V65.0751H57.5861L58.2007 65.0138L58.7538 64.8912L59.184 64.7074L59.4913 64.4623L59.7986 64.1559L60.1059 63.7269L60.2903 63.298L60.4747 62.7465L60.5976 62.0112L60.659 61.092L60.7205 60.0503L60.659 59.3762V58.7022L60.5976 58.0894L60.4747 57.5992L60.3517 57.109L60.1674 56.68L59.983 56.3123L59.7986 56.006L59.5528 55.7608L59.2455 55.577L58.9382 55.3319L58.5695 55.2093L58.2007 55.0868L57.7705 55.0255L57.2788 54.9642H55.4351ZM50.0883 50.7361H58.0778L59.184 50.7974L60.2288 50.9199L61.0892 51.1037L61.8882 51.4101L62.5642 51.7778L63.2403 52.268L63.7934 52.7582L64.2851 53.371L64.7153 54.0451L65.1455 54.7804L65.4528 55.5157L65.6986 56.3736L65.883 57.2315L66.0059 58.0894L66.0673 59.0086L66.1288 59.9277L66.0673 61.3371L65.9444 62.6239L65.7601 63.6657L65.4528 64.5848L65.1455 65.3814L64.7153 66.0555L64.2236 66.7295L63.7319 67.3423L63.1174 67.8325L62.5642 68.2615L61.9497 68.5679L61.2736 68.813L60.4132 68.9968L59.6143 69.1807L58.8153 69.3032H50.0883V50.7361ZM29.7457 50.7361H34.7852L41.3612 61.0307V50.7361H46.4622V69.3032H41.3612L34.8467 59.1311V69.3032H29.7457V50.7361ZM20.4655 50.7361H25.8738V69.3032H20.4655V50.7361ZM0 50.7361H5.4083V57.2315H11.3083V50.7361H16.7166V69.3032H11.3083V61.7661H5.4083V69.3032H0V50.7361Z" fill="white"/>
<path d="M121.44 89.711L124.82 89.4658L124.882 89.8948L125.005 90.2625L125.128 90.5688L125.312 90.814L125.619 91.1816L125.988 91.3655L126.418 91.5493L126.849 91.6106L127.217 91.5493L127.586 91.488L127.832 91.3655L128.078 91.1816L128.262 90.9978L128.385 90.7527L128.446 90.5688V90.0786L128.385 89.8335L128.262 89.6497L128.078 89.4658L127.832 89.282L127.402 89.0982L126.91 88.9143L126.234 88.7305L125.128 88.4241L124.206 88.0565L123.837 87.8726L123.468 87.6888L123.161 87.4437L122.854 87.1986L122.608 86.9535L122.424 86.7084L122.239 86.4632L122.116 86.1569L121.993 85.8505L121.932 85.5441L121.87 85.1764V84.3798L121.993 83.8896L122.178 83.4606L122.362 83.0317L122.669 82.6027L123.038 82.2964L123.468 81.9287L123.96 81.6836L124.513 81.4998L125.189 81.3159L125.927 81.2546L126.787 81.1934H127.34L127.832 81.2546L128.324 81.3159L128.754 81.4385L129.184 81.561L129.553 81.6836L129.86 81.8674L130.167 82.1125L130.475 82.3576L130.72 82.6027L130.905 82.9091L131.151 83.2155L131.274 83.5832L131.396 84.0121L131.519 84.4411L131.581 84.87L128.201 85.1151L128.139 84.7475L128.016 84.3798L127.832 84.1347L127.648 83.8896L127.402 83.7057L127.094 83.5832L126.787 83.5219H126.173L125.865 83.5832L125.681 83.6445L125.496 83.767L125.374 83.9509L125.251 84.1347L125.189 84.3185V84.6249L125.251 84.7475L125.312 84.87L125.435 84.9926L125.619 85.1151L125.865 85.2377L126.234 85.3602L126.664 85.4828L127.709 85.7279L128.692 86.0343L129.43 86.2794L130.044 86.5858L130.475 86.8922L130.905 87.1986L131.212 87.5662L131.519 87.9339L131.704 88.3628L131.827 88.7918L131.95 89.282V90.385L131.827 90.9365L131.642 91.488L131.335 91.9782L131.028 92.4685L130.597 92.8361L130.167 93.2038L129.614 93.5102L129 93.694L128.385 93.8778L127.648 94.0004H126.111L125.435 93.9391L124.882 93.8166L124.329 93.694L123.837 93.5715L123.407 93.3263L123.038 93.0812L122.731 92.7748L122.424 92.4685L122.239 92.1621L121.993 91.7944L121.809 91.4267L121.686 90.9978L121.563 90.6301L121.502 90.1399L121.44 89.711ZM111.976 86.4632H113.512L113.881 86.402L114.495 86.2794L114.618 86.2181L114.803 86.1569L114.926 86.0343L115.049 85.8505L115.233 85.5441L115.294 85.1764L115.233 84.87L115.172 84.6249L115.049 84.4411L114.926 84.2572L114.68 84.0734L114.434 84.0121L114.004 83.9509L113.574 83.8896H111.976V86.4632ZM108.411 93.8166V81.4385H115.172L115.848 81.4998L116.462 81.561L116.892 81.7449L117.323 81.9287L117.691 82.1738L118.06 82.4802L118.367 82.8479L118.552 83.2768L118.736 83.767L118.859 84.2572V85.3602L118.798 85.7892L118.675 86.2181L118.49 86.6471L118.244 87.0147L117.999 87.3211L117.691 87.6275L117.323 87.8726L116.769 88.1177L116.093 88.3628L116.647 88.5467L117.015 88.7918L117.261 89.0369L117.568 89.4658L117.876 89.8948L118.06 90.2012L119.842 93.8166H115.786L113.819 90.0173L113.512 89.4046L113.205 89.0369L113.021 88.9143L112.775 88.8531L112.529 88.7918H111.976V93.8166H108.411ZM95.5664 81.4385H105.154V84.0734H99.131V86.0343H104.724V88.5467H99.131V90.9978H105.338V93.8166H95.5664V81.4385ZM81.0009 81.4385H84.3196L88.6831 88.3016V81.4385H92.0633V93.8166H88.6831L84.3811 87.0147V93.8166H81.0009V81.4385ZM66.3739 81.4385H69.7541L74.1176 88.3016V81.4385H77.4978V93.8166H74.1176L69.7541 87.0147V93.8166H66.3739V81.4385ZM59.1218 81.4385H62.6864V93.8166H59.1218V81.4385ZM49.7802 86.7084H50.6406L51.1323 86.6471L51.501 86.5858L51.8698 86.4632L52.1156 86.3407L52.3 86.0956L52.4229 85.8505L52.4844 85.6054L52.5458 85.3602L52.4844 85.0539L52.4229 84.8087L52.3 84.5636L52.1771 84.3185L51.9312 84.1347L51.624 84.0121L51.2552 83.9509H49.7802V86.7084ZM46.1542 81.4385H52.6073L53.0375 81.4998L53.4677 81.561L53.8364 81.6836L54.1437 81.8061L54.5125 81.99L54.7583 82.1738L55.0656 82.4189L55.25 82.664L55.4344 82.9704L55.6187 83.2768L55.7416 83.5832L55.8646 83.9509L55.926 84.3798L55.9875 84.7475V85.6666L55.926 86.0956L55.8646 86.5245L55.7416 86.8922L55.6187 87.2599L55.4344 87.5662L55.1885 87.8726L54.9427 88.179L54.6969 88.4241L54.3281 88.608L54.0208 88.7918L53.5906 88.9143L53.2219 89.0369L52.7302 89.1595L52.2385 89.2207H49.7802V93.8166H46.1542V81.4385ZM32.7563 89.711L36.1365 89.4658L36.2595 89.8948L36.3209 90.2625L36.4438 90.5688L36.6282 90.814L36.9355 91.1816L37.3042 91.3655L37.7344 91.5493L38.2261 91.6106L38.5334 91.5493L38.9021 91.488L39.148 91.3655L39.3938 91.1816L39.5782 90.9978L39.7011 90.7527L39.7626 90.5688L39.824 90.3237L39.7626 90.0786L39.7011 89.8335L39.5782 89.6497L39.3938 89.4658L39.148 89.282L38.7178 89.0982L38.2261 88.9143L37.5501 88.7305L36.4438 88.4241L35.522 88.0565L35.1532 87.8726L34.7845 87.6888L34.4772 87.4437L34.1699 87.1986L33.9855 86.9535L33.7397 86.7084L33.5553 86.4632L33.4324 86.1569L33.3095 85.8505L33.248 85.5441L33.1866 85.1764V84.8087L33.248 84.3798L33.3095 83.8896L33.4938 83.4606L33.6782 83.0317L33.9855 82.6027L34.3543 82.2964L34.7845 81.9287L35.2761 81.6836L35.8292 81.4998L36.5053 81.3159L37.2428 81.2546L38.1032 81.1934H38.6563L39.148 81.2546L39.6396 81.3159L40.0698 81.4385L40.5001 81.561L40.8688 81.6836L41.1761 81.8674L41.5448 82.1125L41.7907 82.3576L42.0365 82.6027L42.2823 82.9091L42.4667 83.2155L42.5896 83.5832L42.7125 84.0121L42.8355 84.4411L42.8969 84.87L39.5167 85.1151L39.4553 84.7475L39.3324 84.3798L39.148 84.1347L38.9636 83.8896L38.7178 83.7057L38.4719 83.5832L38.1032 83.5219H37.4886L37.2428 83.5832L36.9969 83.6445L36.8126 83.767L36.6897 83.9509L36.5667 84.1347L36.5053 84.3185V84.6249L36.5667 84.7475L36.6282 84.87L36.7511 84.9926L36.9355 85.1151L37.1813 85.2377L37.5501 85.3602L37.9803 85.4828L39.0865 85.7279L40.0084 86.0343L40.7459 86.2794L41.3605 86.5858L41.7907 86.8922L42.2209 87.1986L42.5282 87.5662L42.8355 87.9339L43.0198 88.3628L43.1427 88.7918L43.2657 89.282V90.385L43.1427 90.9365L42.9584 91.488L42.6511 91.9782L42.3438 92.4685L41.9136 92.8361L41.4834 93.2038L40.9303 93.5102L40.3771 93.694L39.7011 93.8778L38.9636 94.0004H37.4272L36.7511 93.9391L36.198 93.8166L35.6449 93.694L35.1532 93.5715L34.723 93.3263L34.3543 93.0812L34.047 92.7748L33.8011 92.4685L33.5553 92.1621L33.3095 91.7944L33.1251 91.4267L33.0022 90.9978L32.8793 90.6301L32.8178 90.1399L32.7563 89.711Z" fill="white"/>
<path d="M28.8851 86.7715H13.6436V87.8132H28.8851V86.7715Z" fill="white"/>
<path d="M150.078 86.4062H134.898V87.448H150.078V86.4062Z" fill="white"/>
<path d="M124.236 7.82879C124.236 8.16072 124.134 8.48753 123.939 8.75307C115.827 20.1711 107.719 31.5841 99.607 43.0073L99.2024 43.5792L98.0962 45.1469C97.8196 45.5401 97.2716 45.6371 96.8773 45.3614C96.4829 45.0805 96.3856 44.5392 96.6622 44.1409L97.7991 42.5324L98.173 42.0013C103.12 35.0361 108.073 28.0657 113.02 21.1056C113.435 20.5286 113.02 19.7269 112.308 19.7269H88.6624C88.1759 19.7269 87.7866 19.3337 87.7866 18.8537V18.6035C87.7866 18.1234 88.1759 17.7302 88.6624 17.7302H115.228C115.34 17.7302 115.453 17.669 115.52 17.5771C116.564 16.1064 116.554 16.1319 116.569 16.1115C117.363 15.0698 117.517 14.7736 117.793 14.3804C117.916 14.2119 117.799 13.977 117.589 13.977H93.1386C92.6521 13.977 92.2628 13.5838 92.2628 13.1038V12.8536C92.2628 12.3736 92.6521 11.9804 93.1386 11.9804H119.32C119.432 11.9804 119.54 11.9242 119.612 11.8272C120.364 10.765 121.122 9.70287 121.88 8.63562C121.998 8.4671 121.88 8.23221 121.67 8.23221H97.5482C97.0617 8.23221 96.6724 7.83901 96.6724 7.359V7.10368C96.6724 6.62367 97.0617 6.23047 97.5482 6.23047H122.633C123.079 6.23047 123.478 6.4092 123.765 6.70026C124.057 6.98623 124.236 7.38453 124.236 7.82879Z" fill="#FFB347"/>
<path d="M69.7257 18.6113V18.8615C69.7257 19.3415 69.3364 19.7347 68.8499 19.7347H45.2039C44.492 19.7347 44.0772 20.5364 44.492 21.1134C49.5674 28.2523 54.6428 35.3962 59.7131 42.5402C59.9641 42.8977 59.959 43.3981 59.6465 43.6994C59.2471 44.0926 58.6171 44.0211 58.3098 43.587C51.4317 33.8949 44.5484 24.2131 37.6651 14.5261C37.747 14.6435 37.8238 14.7559 37.9058 14.8733C36.6817 15.8487 36.0467 17.4317 35.9596 18.9943C35.8367 21.1747 36.6715 23.2326 37.4192 25.2344C37.6497 25.8471 37.8699 26.465 38.0799 27.0829C39.2066 30.3459 40.9838 34.4158 38.9915 37.6942C38.0748 39.1955 36.6408 40.3648 34.9302 40.8295C33.4859 41.2278 32.0468 41.0644 30.582 41.0644H24.9125C24.3748 41.0644 23.9395 40.6304 23.9395 40.0942C23.9395 39.558 24.3748 39.1189 24.9125 39.1189H28.8407C31.8214 39.1189 35.3553 39.4763 37.1888 36.5707C37.6548 35.8354 37.9109 34.9979 37.9621 34.1349C38.0082 33.2822 37.8136 32.4856 37.5934 31.6634C36.7995 28.717 35.3092 26.0157 34.5307 23.0641C34.0851 21.3739 33.87 19.6019 34.1312 17.8708C34.4027 16.0682 35.2528 14.281 36.7688 13.2597C35.7035 11.7584 34.6383 10.2622 33.573 8.76088C33.3835 8.49534 33.2811 8.16853 33.2811 7.83661C33.2811 7.39234 33.4603 6.99404 33.7522 6.70808C34.0391 6.41701 34.4436 6.23828 34.8841 6.23828H59.9692C60.4506 6.23828 60.845 6.63148 60.845 7.11149V7.36681C60.845 7.84682 60.4506 8.24002 59.9692 8.24002H35.8469C35.637 8.24002 35.5192 8.47492 35.637 8.64343C36.3949 9.71068 37.1529 10.7728 37.9058 11.835C37.9724 11.932 38.085 11.9882 38.1977 11.9882H64.3788C64.8653 11.9882 65.2546 12.3814 65.2546 12.8614V13.1116C65.2546 13.5916 64.8653 13.9848 64.3788 13.9848H39.9288C39.7239 13.9848 39.6061 14.2197 39.7239 14.3882C40.0005 14.7814 40.1541 15.0776 40.9479 16.1193C40.9633 16.1397 40.9531 16.1193 41.9978 17.5798C42.0644 17.6768 42.1771 17.7381 42.3 17.7381H68.8601C69.3467 17.7381 69.7359 18.1313 69.7359 18.6113H69.7257Z" fill="#FFB347"/>
<path d="M89.6472 6.44437H69.2534L72.7821 0H86.3695L89.6472 6.44437Z" fill="#FFB347"/>
<path d="M62.4604 36.8581V24.9844H65.5656L69.9773 32.4263V24.9844H72.9298V36.8581H69.8077L65.4129 29.7338V36.8581H62.4604Z" fill="white"/>
<path d="M74.2222 36.8581L78.566 24.9844H81.9936L86.3374 36.8581H83.3001L82.5196 34.6171H78.04L77.2425 36.8581H74.2222ZM78.8375 32.3093H81.7221L80.2968 28.1284L78.8375 32.3093Z" fill="white"/>
<path d="M89.3206 36.8581L84.9598 24.9844H87.9971L91.0344 33.5803L94.0547 24.9844H97.092L92.7142 36.8581H89.3206Z" fill="white"/>
</svg>
