<svg width="176" height="57" viewBox="0 0 176 57" fill="none" xmlns="http://www.w3.org/2000/svg">
<path d="M90.6138 1.10156H79.7268C79.101 1.10156 78.5938 1.60935 78.5938 2.23573V54.2289C78.5938 54.8553 79.101 55.363 79.7268 55.363H90.6138C91.2396 55.363 91.7469 54.8553 91.7469 54.2289V2.23573C91.7469 1.60935 91.2396 1.10156 90.6138 1.10156Z" fill="#9AC041"/>
<path d="M36.494 38.0705C36.2591 29.2541 29.8544 26.5525 29.8544 26.5525C29.3302 26.2913 29.8609 25.9212 29.8609 25.9212C36.4135 20.5682 34.9455 12.801 34.9455 12.801C33.4776 0.521126 19.8982 1.09801 19.8982 1.09801H0.290282C-0.0250629 1.09801 0.211989 1.76631 0.211989 1.76631L6.00563 26.9052C6.36012 28.0459 6.18831 28.6511 6.18831 28.6511L0.0554043 54.9546C-0.114229 55.3355 0.159794 55.3617 0.159794 55.3617H18.3976C26.6205 55.5184 29.9392 52.843 29.9392 52.843C37.0703 47.6467 36.4918 38.0705 36.4918 38.0705H36.494ZM15.0962 10.278C15.0962 10.278 20.0047 9.82303 21.7098 13.0753C21.7098 13.0753 22.4579 14.1899 22.4296 16.2297C22.4557 18.2694 21.7098 19.384 21.7098 19.384C20.0069 22.6385 15.0962 22.1813 15.0962 22.1813C14.7526 22.1813 14.7809 21.7394 14.7809 21.7394V10.7177C14.7809 10.7177 14.7505 10.2758 15.0962 10.2758V10.278ZM22.5601 42.1174C20.8159 45.89 15.1332 45.5329 15.1332 45.5329C14.7461 45.5329 14.7809 45.0366 14.7809 45.0366V32.3866C14.7809 32.3866 14.7483 31.8903 15.1332 31.8903C15.1332 31.8903 20.6855 31.3287 22.6515 34.8705C22.6515 34.8705 23.3996 36.2855 23.3691 38.5756C23.3996 40.8657 22.5601 42.1196 22.5601 42.1196V42.1174Z" fill="#9AC041"/>
<path d="M74.3353 20.4055H63.718C63.718 20.4055 62.4588 20.3271 62.4588 18.9883C62.4588 18.9883 63.246 10.2111 57.3458 10.5267C57.3458 10.5267 52.7048 9.77786 52.5483 17.7693C52.5483 17.7693 52.2329 29.2633 52.5483 35.3238C52.5483 35.3238 52.47 42.1724 54.0032 44.2578C54.0032 44.2578 55.0645 46.069 57.5807 46.0298C57.5807 46.0298 61.4736 46.5022 62.0238 41.4257C62.0238 41.4257 62.5349 36.5451 62.3 34.6555C62.3 34.6555 62.2348 33.9611 62.8633 34.0133H73.9003C73.9003 34.0133 75.0791 33.9872 75.0269 35.4044C75.0269 35.4044 75.1313 39.4186 74.7115 42.07C74.7115 42.07 74.2657 57.132 56.5716 56.4507C56.5716 56.4507 43.4903 56.5552 40.6587 45.3768C40.6587 45.3768 39.506 40.2327 39.3995 33.6998C39.3995 33.6998 39.3734 27.2976 39.5822 18.4289C39.5822 18.4289 39.5561 6.85646 46.4501 2.86837C46.4501 2.86837 50.4605 -0.174938 57.5655 0.00792234C57.5655 0.00792234 67.737 -0.20106 71.7473 6.48856C71.7473 6.48856 74.6811 10.1632 75.0356 18.873V19.9353C75.0356 19.9353 75.0965 20.3881 74.5854 20.4077H74.3288L74.3353 20.4055Z" fill="#9AC041"/>
<path d="M114.688 17.2616V5.72406H117.934C119.983 5.64787 120.788 6.87782 120.831 8.58668C120.877 9.87977 120.468 10.6482 119.133 11.125V11.1554C120.636 11.3252 121.105 12.4485 121.105 13.8635C121.121 16.1558 119.892 17.3705 117.691 17.2638H114.688V17.2616ZM115.947 10.6613H117.069C118.602 10.7375 119.481 10.461 119.481 8.69118C119.481 7.27619 118.95 6.82992 117.054 6.87564H115.947V10.6613ZM117.934 16.1079C119.315 16.1231 119.8 15.4613 119.8 13.9375C119.8 11.6452 118.359 11.815 117.069 11.815H115.947V16.1079H117.934Z" fill="#9AC041"/>
<path d="M128.437 14.4173C128.513 16.0935 127.662 17.4933 125.888 17.4933C124.309 17.4933 123.156 16.4157 123.156 12.9697C123.156 11.1694 123.611 8.47656 125.857 8.47656C128.589 8.47656 128.437 11.091 128.498 13.0916H124.4C124.415 13.3833 124.415 13.7229 124.415 14.106C124.415 15.2293 124.674 16.4593 125.918 16.4593C127.071 16.4593 127.391 15.3817 127.314 14.413H128.437V14.4173ZM127.254 12.0946C127.208 11.0954 127.269 9.51059 125.873 9.51059C124.476 9.51059 124.446 11.0801 124.4 12.0946H127.254Z" fill="#9AC041"/>
<path d="M132.046 8.70752H133.458V9.7372H132.061V15.5691C132.061 15.8608 131.955 16.2309 132.623 16.2309H133.427V17.2606H132.107C131.379 17.2606 130.863 17.1691 130.863 15.8608V9.7372H129.695V8.70752H130.863V6.38477H132.046V8.70752Z" fill="#9AC041"/>
<path d="M136.562 8.70752H137.973V9.7372H136.577V15.5691C136.577 15.8608 136.471 16.2309 137.138 16.2309H137.943V17.2606H136.623C135.894 17.2606 135.379 17.1691 135.379 15.8608V9.7372H134.211V8.70752H135.379V6.38477H136.562V8.70752Z" fill="#9AC041"/>
<path d="M144.53 14.4173C144.606 16.0935 143.756 17.4933 141.981 17.4933C140.402 17.4933 139.25 16.4157 139.25 12.9697C139.25 11.1694 139.704 8.47656 141.951 8.47656C144.682 8.47656 144.53 11.091 144.591 13.0916H140.494C140.509 13.3833 140.509 13.7229 140.509 14.106C140.509 15.2293 140.768 16.4593 142.012 16.4593C143.164 16.4593 143.484 15.3817 143.408 14.413H144.53V14.4173ZM143.347 12.0946C143.301 11.0954 143.362 9.51059 141.966 9.51059C140.57 9.51059 140.539 11.0801 140.494 12.0946H143.347Z" fill="#9AC041"/>
<path d="M148.02 10.1075H148.05C148.55 8.98426 149.249 8.50752 150.523 8.61419V9.81366C148.99 9.52196 148.065 10.5364 148.065 12.0755V17.2608H146.867V8.7078H148.02V10.1075Z" fill="#9AC041"/>
<path d="M119.841 25.4359C119.795 24.0819 119.371 22.8977 117.792 22.8977C115.607 22.8977 115.576 26.0368 115.576 27.5737C115.561 27.8349 115.561 28.1418 115.561 28.4967C115.561 30.2034 115.865 32.635 117.792 32.635C119.295 32.635 119.597 31.3898 119.765 30.1272C119.81 29.8659 119.795 29.6047 119.841 29.3435H121.1C121.085 29.4502 121.07 29.5742 121.07 29.6983C121.07 29.8224 121.054 29.9443 121.039 30.0532C120.963 31.0066 120.933 31.6989 120.372 32.5C119.78 33.3468 118.991 33.7931 117.899 33.7931C114.393 33.7931 114.273 30.3623 114.273 27.6085C114.273 25.0093 114.652 21.7461 117.884 21.7461C120.024 21.7461 121.176 23.3766 121.1 25.4381H119.841V25.4359Z" fill="#9AC041"/>
<path d="M126.612 33.7431C124.792 33.7431 123.594 32.635 123.594 28.943C123.594 26.359 124.551 24.7285 126.612 24.7285C128.674 24.7285 129.631 26.359 129.631 28.943C129.631 32.635 128.463 33.7431 126.612 33.7431ZM126.612 25.7582C125.384 25.7582 124.838 26.7422 124.838 29.3283C124.838 31.3441 125.216 32.7134 126.612 32.7134C128.009 32.7134 128.387 31.3441 128.387 29.3283C128.387 26.7443 127.872 25.7582 126.612 25.7582Z" fill="#9AC041"/>
<path d="M133.195 24.9595H134.606V25.9891H133.21V31.8211C133.21 32.1128 133.103 32.4829 133.771 32.4829H134.576V33.5125H133.256C132.527 33.5125 132.012 33.4211 132.012 32.1128V25.9891H130.844V24.9595H132.012V22.6367H133.195V24.9595Z" fill="#9AC041"/>
<path d="M137.413 24.9595H138.825V25.9891H137.429V31.8211C137.429 32.1128 137.322 32.4829 137.99 32.4829H138.794V33.5125H137.474C136.746 33.5125 136.23 33.4211 136.23 32.1128V25.9891H135.062V24.9595H136.23V22.6367H137.413V24.9595Z" fill="#9AC041"/>
<path d="M143.237 33.7431C141.417 33.7431 140.219 32.635 140.219 28.943C140.219 26.359 141.176 24.7285 143.237 24.7285C145.299 24.7285 146.256 26.359 146.256 28.943C146.256 32.635 145.088 33.7431 143.237 33.7431ZM143.237 25.7582C142.009 25.7582 141.463 26.7422 141.463 29.3283C141.463 31.3441 141.841 32.7134 143.237 32.7134C144.634 32.7134 145.012 31.3441 145.012 29.3283C145.012 26.7443 144.497 25.7582 143.237 25.7582Z" fill="#9AC041"/>
<path d="M149.603 25.8975C150.21 25.1595 150.832 24.7285 151.743 24.7285C153.018 24.7285 153.822 25.3903 153.822 26.9141V33.5145H152.624V27.2537C152.624 26.346 152.337 25.7604 151.365 25.7604C150.91 25.7604 150.514 25.9149 150.182 26.2371C149.697 26.6834 149.636 27.1754 149.636 27.7914V33.5145H148.438V24.9614H149.605V25.8997L149.603 25.8975Z" fill="#9AC041"/>
<path d="M114.953 49.7622V38.2246H116.212V49.7622H114.953Z" fill="#9AC041"/>
<path d="M119.658 42.1475C120.265 41.4095 120.887 40.9785 121.798 40.9785C123.072 40.9785 123.877 41.6403 123.877 43.1641V49.7645H122.679V43.5037C122.679 42.596 122.392 42.0104 121.419 42.0104C120.965 42.0104 120.569 42.1649 120.236 42.4871C119.751 42.9334 119.69 43.4254 119.69 44.0414V49.7645H118.492V41.2114H119.66V42.1497L119.658 42.1475Z" fill="#9AC041"/>
<path d="M126.367 39.7617V38.2227H127.565V39.7617H126.367ZM126.367 49.7624V41.2094H127.565V49.7624H126.367Z" fill="#9AC041"/>
<path d="M131.132 41.2095H132.544V42.2391H131.147V48.0711C131.147 48.3628 131.041 48.7328 131.709 48.7328H132.513V49.7625H131.193C130.465 49.7625 129.949 49.6711 129.949 48.3628V42.2391H128.781V41.2095H129.949V38.8867H131.132V41.2095Z" fill="#9AC041"/>
<path d="M134.258 39.7617V38.2227H135.456V39.7617H134.258ZM134.258 49.7624V41.2094H135.456V49.7624H134.258Z" fill="#9AC041"/>
<path d="M143.468 49.7623C143.362 49.7776 143.301 49.7776 143.194 49.8233C142.179 49.869 141.798 49.7776 141.676 48.6086H141.646C141.359 49.3618 140.584 49.9931 139.78 49.9931C138.081 49.9931 137.609 49.0243 137.609 47.4853C137.609 47.1631 137.655 45.9462 138.823 45.4085C139.506 45.0863 141.189 44.455 141.357 44.3309C141.615 44.1307 141.585 43.7932 141.585 43.347C141.585 42.363 141.222 42.0082 140.25 42.0082C139.158 42.0082 139.021 42.5154 139.021 43.5168H137.944C137.883 41.7317 138.734 40.9785 140.447 40.9785C142.951 40.9785 142.738 43.101 142.738 43.3013V48.208C142.738 48.4388 142.707 48.7305 142.951 48.8545C143.027 48.8698 143.118 48.885 143.209 48.885C143.301 48.885 143.392 48.885 143.468 48.8698V49.7623ZM141.496 45.1473C140.904 45.5021 140.252 45.7633 139.599 46.0703C139.038 46.3315 138.856 46.9476 138.856 47.5462C138.856 48.4083 139.069 48.9612 140.039 48.9612C140.478 48.9612 141.496 48.6064 141.496 47.2219V45.1451V45.1473Z" fill="#9AC041"/>
<path d="M146.663 41.2095H148.075V42.2391H146.679V48.0711C146.679 48.3628 146.572 48.7328 147.24 48.7328H148.044V49.7625H146.724C145.996 49.7625 145.48 49.6711 145.48 48.3628V42.2391H144.312V41.2095H145.48V38.8867H146.663V41.2095Z" fill="#9AC041"/>
<path d="M149.797 39.7617V38.2227H150.995V39.7617H149.797ZM149.797 49.7624V41.2094H150.995V49.7624H149.797Z" fill="#9AC041"/>
<path d="M152.562 41.209H153.806L155.718 48.7324H155.749L157.66 41.209H158.904L156.371 49.762H155.066L152.562 41.209Z" fill="#9AC041"/>
<path d="M165.648 46.9173C165.724 48.5935 164.873 49.9933 163.099 49.9933C161.52 49.9933 160.367 48.9157 160.367 45.4697C160.367 43.6694 160.822 40.9766 163.068 40.9766C165.8 40.9766 165.648 43.591 165.708 45.5916H161.611C161.626 45.8833 161.626 46.2229 161.626 46.606C161.626 47.7293 161.885 48.9593 163.129 48.9593C164.282 48.9593 164.602 47.8817 164.525 46.913H165.648V46.9173ZM164.464 44.5924C164.419 43.5932 164.48 42.0084 163.083 42.0084C161.687 42.0084 161.657 43.578 161.611 44.5924H164.464Z" fill="#9AC041"/>
<path d="M164.364 1.26184H100.703L107.238 26.0872C107.238 26.0872 107.586 27.5479 107.586 27.7678C107.608 27.9463 107.586 28.6973 107.586 28.6973C107.586 28.9172 107.238 30.3779 107.238 30.3779L100.703 55.2033H164.364C164.364 55.2033 175.281 55.3557 175.44 44.641V11.8242C175.281 1.10945 164.364 1.26184 164.364 1.26184ZM174.776 29.235V45.8339C173.848 54.8528 164.15 54.5524 164.15 54.5524H101.501L107.741 30.3779C107.741 30.3779 108.204 29.0435 108.176 28.4796V27.9768C108.204 27.4151 107.741 26.0785 107.741 26.0785L101.501 1.90402H164.15C164.15 1.90402 173.848 1.60361 174.776 10.6225V29.2307V29.235Z" fill="#9AC041"/>
</svg>
