<svg width="103" height="158" viewBox="0 0 103 158" fill="none" xmlns="http://www.w3.org/2000/svg">
<path d="M123.102 87.7853C115.542 85.1027 121.778 80.929 117.298 77.2358C112.215 73.0454 109.138 82.3482 97.1641 72.2347C92.0236 67.8928 90.7482 59.765 89.3312 57.4836C87.9143 55.2022 80.1725 56.0576 76.9592 48.0727C73.7456 40.0875 73.0882 38.0033 76.9592 36.1224C80.8302 34.2415 72.8956 29.6787 75.8709 27.6824C78.8463 25.6861 84.0555 29.3102 89.6146 27.1121C95.6017 24.7449 88.4809 17.7012 92.0232 13.5661C95.5656 9.43092 88.1964 8.84397 82.3883 8.71807C75.3656 8.565 77.835 2.9452 73.1547 2.36134C67.9078 1.70682 65.5277 8.14717 60.9934 6.57889C56.4594 5.01031 50.6292 6.33171 48.2619 9.67224C46.3221 12.4092 46.27 13.9382 40.7327 14.9671C37.6629 15.5374 38.5491 18.7557 33.4828 18.0712C29.3502 17.513 30.306 12.5351 25.1461 13.7083C20.7042 14.7184 22.3934 20.1691 16.9414 20.9171C11.5883 21.6515 13.2945 26.7483 13.2945 29.3781C13.2945 32.0079 9.99228 34.8254 14.8967 39.3016C19.8011 43.7777 15.0353 51.6114 21.7075 51.6114C28.3797 51.6114 31.7153 43.0436 35.6869 43.0436C39.6585 43.0436 45.1253 48.502 45.1253 56.1758C45.1253 63.8496 52.0493 65.8397 58.88 66.7988C65.7107 67.7579 64.9165 74.9522 68.5701 77.6699C72.2238 80.3877 73.8125 89.3403 80.9609 89.5002C88.1093 89.66 89.0626 102.449 94.6226 100.531C100.183 98.6127 104.313 100.211 104.472 102.769C104.63 105.327 113.209 105.327 113.844 114.44C114.479 123.552 118.292 124.831 113.844 124.991C109.396 125.151 110.678 133.144 102.259 132.984C98.161 132.907 95.4153 133.662 92.8521 133.924C90.1487 134.199 87.6484 133.926 83.9791 131.546C81.2985 129.807 79.1704 129.576 77.5682 130.134C74.8977 131.064 73.6874 134.188 73.8125 136.182C73.9747 138.769 75.4837 140.648 77.8062 142.299C80.1287 143.95 83.2644 145.374 86.6797 147.053C89.6189 148.498 92.4108 150.297 95.0053 151.879C98.4406 153.973 101.529 155.686 104.154 155.686C108.761 155.686 108.916 148.774 108.916 146.217C108.916 143.659 110.852 140.205 113.235 139.086C115.618 137.967 121.336 140.163 122.746 134.547C124.846 126.179 131.268 127.88 131.781 123.513C132.201 119.94 130.058 117.85 127.943 115.916C125.17 113.381 122.446 111.114 125.599 106.127C128.585 101.406 131.204 104.197 133.997 107.473C136.406 110.298 138.946 113.484 141.962 112.522C144.906 111.582 145.251 108.573 144.363 105.395C143.287 101.541 140.399 97.4391 138.136 96.4753C136.288 95.6884 134.551 94.2627 132.692 92.796" stroke="#3F3F3F" stroke-opacity="0.5" stroke-width="2" stroke-miterlimit="10" stroke-linecap="round" stroke-linejoin="round"/>
<path d="M97.926 133.205V153.583M97.926 72.86V99.7636M54.6465 20.326V6.11523M54.6465 66.0179V31.2409M41.9791 87.7997C44.0649 88.3462 45.2841 89.7463 45.7784 91.8012C46.2727 93.8562 46.0424 96.5659 45.2298 99.7324C43.6043 106.065 47.1261 105.383 47.1261 108.791C47.1261 112.199 48.345 120.377 43.4691 119.423C38.5929 118.469 38.0514 124.33 34.6651 122.831C31.2789 121.331 28.2993 120.65 30.4663 114.652C31.2694 112.429 31.5212 110.509 31.4092 108.827C31.2191 105.97 29.9812 103.8 28.6176 101.998C27.3441 100.316 25.3325 97.301 24.8784 94.6711C24.5595 92.8255 25.0078 91.1695 27.0169 90.2981C31.9032 88.1783 32.5772 94.1981 35.1049 92.9264C37.1673 91.8886 38.8956 86.9918 41.9791 87.7997Z" stroke="#3F3F3F" stroke-opacity="0.5" stroke-width="2" stroke-miterlimit="10" stroke-linecap="round" stroke-linejoin="round"/>
</svg>
