<svg width="93" height="150" viewBox="0 0 93 150" fill="none" xmlns="http://www.w3.org/2000/svg">
<g clip-path="url(#clip0_610_2646)">
<path d="M39.2722 45.5115C39.0391 43.8415 38.9224 42.1572 38.923 40.471C38.9227 20.5465 55.0746 4.39453 74.9991 4.39453C94.9236 4.39453 111.076 20.5465 111.076 40.471C111.076 42.1816 110.957 43.8645 110.726 45.5115M31.4783 101.529C16.9304 100.496 5.44922 88.3664 5.44922 73.5554C5.44922 58.067 18.005 45.5109 33.4937 45.5109C40.1145 45.5109 46.1994 47.8052 50.9968 51.6422M118.52 101.529C133.068 100.496 144.549 88.3664 144.549 73.5554C144.549 58.067 131.993 45.5109 116.505 45.5109C109.884 45.5109 103.799 47.8052 99.0015 51.6422" stroke="#3F3F3F" stroke-opacity="0.5" stroke-width="2" stroke-miterlimit="10"/>
<path d="M103.043 66.1538C103.043 50.6654 90.4877 38.1094 74.999 38.1094C59.5104 38.1094 46.9546 50.6651 46.9546 66.1538M74.999 139.408V135.301M74.999 135.301C74.999 127.095 68.3466 120.443 60.1402 120.443C43.3077 120.443 29.6621 106.797 29.6621 89.9646V75.3656C29.6621 82.7373 35.6381 88.7133 43.0098 88.7133H48.0327C62.9258 88.7133 74.999 100.787 74.999 115.68M74.999 135.301V150M74.999 135.301C74.999 127.095 81.6515 120.443 89.8578 120.443C106.69 120.443 120.336 106.797 120.336 89.9646V75.3656C120.336 82.7373 114.36 88.7133 106.988 88.7133H101.965C87.0723 88.7133 74.999 100.787 74.999 115.68M74.999 115.68V125.975M74.999 115.68V135.301" stroke="#3F3F3F" stroke-opacity="0.5" stroke-width="2" stroke-miterlimit="10"/>
</g>
<defs>
<clipPath id="clip0_610_2646">
<rect width="150" height="150" fill="white"/>
</clipPath>
</defs>
</svg>
