<svg width="96" height="150" viewBox="0 0 96 150" fill="none" xmlns="http://www.w3.org/2000/svg">
<path d="M84.3745 8.23096C85.8517 9.68343 87.6463 10.7727 89.6166 11.413C91.5869 12.0532 93.679 12.2267 95.7279 11.92C102.943 10.8398 109.693 15.7436 110.895 22.9397C111.237 24.9831 112.048 26.9192 113.266 28.5953C114.484 30.2714 116.074 31.6416 117.912 32.5978C124.385 35.9648 126.962 43.8993 123.706 50.4278C122.781 52.2817 122.299 54.3251 122.299 56.3968C122.299 58.4685 122.781 60.5119 123.706 62.3657C126.963 68.8942 124.385 76.8287 117.912 80.1958C116.074 81.152 114.484 82.5222 113.266 84.1982C112.048 85.8743 111.237 87.8104 110.895 89.8538C109.693 97.05 102.943 101.954 95.7279 100.874C93.679 100.567 91.5869 100.74 89.6166 101.381C87.6463 102.021 85.8517 103.11 84.3745 104.563C79.1719 109.678 70.8294 109.678 65.6268 104.563C64.1495 103.11 62.355 102.021 60.3847 101.381C58.4144 100.74 56.3223 100.567 54.2734 100.874C47.0579 101.954 40.3085 97.05 39.1061 89.8538C38.7647 87.8104 37.9531 85.8743 36.7354 84.1982C35.5176 82.5222 33.9271 81.152 32.0892 80.1958C25.6167 76.8287 23.0388 68.8942 26.2958 62.3657C27.2206 60.5119 27.702 58.4685 27.702 56.3968C27.702 54.3251 27.2206 52.2817 26.2958 50.4278C23.0385 43.8993 25.6167 35.9648 32.0892 32.5978C33.9271 31.6416 35.5176 30.2714 36.7354 28.5953C37.9531 26.9192 38.7647 24.9831 39.1061 22.9397C40.3085 15.7436 47.0579 10.8398 54.2734 11.92C56.3223 12.2268 58.4144 12.0533 60.3847 11.4131C62.3551 10.7729 64.1496 9.6835 65.6268 8.23096C70.8294 3.11572 79.1719 3.11572 84.3745 8.23096Z" stroke="#3F3F3F" stroke-opacity="0.5" stroke-width="2" stroke-miterlimit="10" stroke-linecap="round" stroke-linejoin="round"/>
<path d="M65.6152 56.9631L72.2996 63.6475L83.74 52.207" stroke="#3F3F3F" stroke-opacity="0.5" stroke-width="2" stroke-miterlimit="10" stroke-linecap="round" stroke-linejoin="round"/>
<path d="M75 85.4004C91.0184 85.4004 104.004 72.4149 104.004 56.3965C104.004 40.3781 91.0184 27.3926 75 27.3926C58.9816 27.3926 45.9961 40.3781 45.9961 56.3965C45.9961 72.4149 58.9816 85.4004 75 85.4004Z" stroke="#3F3F3F" stroke-opacity="0.5" stroke-width="2" stroke-miterlimit="10" stroke-linecap="round" stroke-linejoin="round"/>
<path d="M43.7959 97.9727L28.002 131.872L50.165 122.805L57.4805 145.606L74.8184 108.396M106.204 97.9727L121.998 131.872L99.835 122.805L92.5195 145.606L75.1816 108.396" stroke="#3F3F3F" stroke-opacity="0.5" stroke-width="2" stroke-miterlimit="10" stroke-linecap="round" stroke-linejoin="round"/>
</svg>
