<svg width="40" height="40" viewBox="0 0 40 40" fill="none" xmlns="http://www.w3.org/2000/svg">
<rect width="40" height="40" rx="20" fill="#009E60" fill-opacity="0.2"/>
<g clip-path="url(#clip0_610_791)">
<path d="M27.2318 23.9201C26.0236 22.8867 24.7974 22.2608 23.6041 23.2926L22.8915 23.9162C22.3701 24.3689 21.4008 26.484 17.6529 22.1726C13.9057 17.8666 16.1356 17.1962 16.6577 16.7474L17.3742 16.123C18.5613 15.0889 18.1133 13.787 17.2571 12.4469L16.7405 11.6352C15.8804 10.2983 14.9438 9.42021 13.7535 10.4528L13.1104 11.0147C12.5844 11.398 11.1139 12.6436 10.7572 15.0101C10.328 17.8495 11.6821 21.101 14.7846 24.6686C17.8831 28.2378 20.9169 30.0306 23.7906 29.9993C26.1789 29.9736 27.6212 28.692 28.0724 28.2261L28.7178 27.6633C29.9049 26.6315 29.1674 25.581 27.9584 24.5453L27.2318 23.9201Z" fill="#009E60"/>
</g>
<defs>
<clipPath id="clip0_610_791">
<rect width="20" height="20" fill="white" transform="translate(10 10)"/>
</clipPath>
</defs>
</svg>
