<svg width="40" height="40" viewBox="0 0 40 40" fill="none" xmlns="http://www.w3.org/2000/svg">
<rect width="40" height="40" rx="20" fill="#009E60" fill-opacity="0.2"/>
<g clip-path="url(#clip0_610_774)">
<path d="M22.9641 20.8301L21.289 22.5108C20.6098 23.1924 19.4146 23.2071 18.7207 22.5108L17.0455 20.8301L11.0293 26.8659C11.2532 26.9694 11.5002 27.0312 11.7627 27.0312H28.247C28.5095 27.0312 28.7564 26.9695 28.9802 26.8659L22.9641 20.8301Z" fill="#009E60"/>
<path d="M28.247 12.9688H11.7626C11.5001 12.9688 11.2532 13.0305 11.0293 13.1341L17.4581 19.5842C17.4585 19.5846 17.459 19.5847 17.4595 19.5852C17.4599 19.5856 17.46 19.5862 17.46 19.5862L19.5503 21.6834C19.7723 21.9055 20.2373 21.9055 20.4593 21.6834L22.5492 19.5865C22.5492 19.5865 22.5497 19.5856 22.5502 19.5852C22.5502 19.5852 22.5511 19.5846 22.5515 19.5842L28.9802 13.1341C28.7563 13.0305 28.5095 12.9688 28.247 12.9688Z" fill="#009E60"/>
<path d="M10.187 13.9531C10.0711 14.1874 10 14.4475 10 14.7261V25.273C10 25.5516 10.071 25.8116 10.1869 26.0459L16.2136 19.9997L10.187 13.9531Z" fill="#009E60"/>
<path d="M29.8157 13.9531L23.7891 19.9998L29.8157 26.0461C29.9315 25.8118 30.0026 25.5517 30.0026 25.273V14.7262C30.0026 14.4475 29.9315 14.1874 29.8157 13.9531Z" fill="#009E60"/>
</g>
<defs>
<clipPath id="clip0_610_774">
<rect width="20" height="20" fill="white" transform="translate(10 10)"/>
</clipPath>
</defs>
</svg>
