<svg width="40" height="40" viewBox="0 0 40 40" fill="none" xmlns="http://www.w3.org/2000/svg">
<rect width="40" height="40" rx="20" fill="#009E60" fill-opacity="0.2"/>
<g clip-path="url(#clip0_610_798)">
<path fill-rule="evenodd" clip-rule="evenodd" d="M20 10.625C25.1744 10.625 29.375 14.8256 29.375 20C29.375 25.1744 25.1744 29.375 20 29.375C14.8256 29.375 10.625 25.1744 10.625 20C10.625 14.8256 14.8256 10.625 20 10.625ZM19.375 15.625V20C19.375 20.1656 19.4406 20.325 19.5581 20.4419L22.9956 23.8794C23.2394 24.1231 23.6356 24.1231 23.8794 23.8794C24.1231 23.6356 24.1231 23.2394 23.8794 22.9956L20.625 19.7412V15.625C20.625 15.28 20.345 15 20 15C19.655 15 19.375 15.28 19.375 15.625Z" fill="#009E60"/>
</g>
<defs>
<clipPath id="clip0_610_798">
<rect width="20" height="20" fill="white" transform="translate(10 10)"/>
</clipPath>
</defs>
</svg>
