<svg width="84" height="86" viewBox="0 0 84 86" fill="none" xmlns="http://www.w3.org/2000/svg">
<path d="M26.4893 2.35352L42 28.9229L57.5107 2.35352L58.0449 1.43848L58.9268 2.02441L69.2197 8.85352L70.0303 9.3916L69.5146 10.2168L53.8613 35.2725H83V50.1992H53.8545L69.5166 75.502L70.0273 76.3252L69.2197 76.8613L58.9268 83.6904L58.0449 84.2764L57.5107 83.3613L42 56.791L26.4893 83.3613L25.9492 84.2861L25.0645 83.6846L15.0059 76.8555L14.2178 76.3203L14.7139 75.5068L30.1592 50.1992H1V35.2725H30.1514L14.7158 10.2109L14.2139 9.39648L15.0059 8.85938L25.0645 2.03027L25.9492 1.42871L26.4893 2.35352Z" fill="#FFB347" stroke="#FFB347" stroke-width="2"/>
</svg>
