<svg width="256" height="256" viewBox="0 0 256 256" fill="none" xmlns="http://www.w3.org/2000/svg">
<rect width="256" height="256" fill="#009E60"/>
<path d="M232 94.6317C232 95.3675 231.773 96.0919 231.341 96.6805C213.359 121.99 195.388 147.288 177.406 172.609L176.509 173.876L174.057 177.351C173.444 178.223 172.23 178.438 171.355 177.827C170.481 177.204 170.266 176.004 170.879 175.121L173.399 171.556L174.228 170.379C185.194 154.94 196.172 139.489 207.138 124.061C208.058 122.782 207.138 121.005 205.56 121.005H153.146C152.068 121.005 151.205 120.133 151.205 119.07V118.515C151.205 117.451 152.068 116.579 153.146 116.579H212.031C212.281 116.579 212.53 116.443 212.678 116.24C214.994 112.98 214.971 113.036 215.005 112.991C216.765 110.682 217.105 110.026 217.718 109.154C217.991 108.781 217.73 108.26 217.264 108.26H163.068C161.99 108.26 161.127 107.388 161.127 106.324V105.77C161.127 104.706 161.99 103.834 163.068 103.834H221.101C221.351 103.834 221.59 103.71 221.748 103.495C223.417 101.14 225.097 98.7858 226.778 96.4201C227.039 96.0466 226.778 95.5259 226.312 95.5259H172.843C171.764 95.5259 170.901 94.6544 170.901 93.5904V93.0244C170.901 91.9604 171.764 91.0889 172.843 91.0889H228.446C229.434 91.0889 230.319 91.485 230.955 92.1302C231.602 92.7641 232 93.647 232 94.6317Z" fill="#FFB347"/>
<path d="M111.172 118.515V119.07C111.172 120.133 110.309 121.005 109.23 121.005H56.8165C55.2385 121.005 54.319 122.782 55.2386 124.061C66.4887 139.885 77.7389 155.721 88.9777 171.556C89.5339 172.348 89.5226 173.457 88.8301 174.125C87.9446 174.997 86.5483 174.838 85.8671 173.876C70.621 152.393 55.3634 130.932 40.1059 109.46C40.2875 109.72 40.4578 109.969 40.6394 110.229C37.9262 112.391 36.5186 115.9 36.3256 119.364C36.0531 124.197 37.9035 128.759 39.561 133.196C40.0718 134.554 40.56 135.924 41.0254 137.293C43.5229 144.526 47.4622 153.547 43.0461 160.814C41.0141 164.142 37.8354 166.734 34.0437 167.764C30.8424 168.647 27.6524 168.285 24.4056 168.285H11.8386C10.6466 168.285 9.68164 167.323 9.68164 166.134C9.68164 164.946 10.6466 163.972 11.8386 163.972H20.5458C27.1529 163.972 34.986 164.764 39.0501 158.324C40.0832 156.694 40.6508 154.838 40.7643 152.925C40.8665 151.034 40.4351 149.269 39.947 147.446C38.1874 140.915 34.8838 134.927 33.1583 128.385C32.1706 124.638 31.6938 120.711 32.2728 116.874C32.8745 112.878 34.7589 108.916 38.1192 106.653C35.7579 103.325 33.3967 100.008 31.0354 96.6805C30.6153 96.0919 30.3883 95.3675 30.3883 94.6317C30.3883 93.647 30.7856 92.7641 31.4327 92.1302C32.0684 91.485 32.9653 91.0889 33.9416 91.0889H89.5453C90.6124 91.0889 91.4866 91.9604 91.4866 93.0244V93.5904C91.4866 94.6544 90.6124 95.5259 89.5453 95.5259H36.0758C35.6104 95.5259 35.3493 96.0466 35.6104 96.4201C37.2905 98.7858 38.9707 101.14 40.6394 103.495C40.787 103.71 41.0368 103.834 41.2865 103.834H99.3197C100.398 103.834 101.261 104.706 101.261 105.77V106.324C101.261 107.388 100.398 108.26 99.3197 108.26H45.1236C44.6695 108.26 44.4084 108.781 44.6695 109.154C45.2825 110.026 45.6231 110.682 47.3827 112.991C47.4168 113.036 47.3941 112.991 49.7099 116.228C49.8575 116.443 50.1073 116.579 50.3797 116.579H109.253C110.331 116.579 111.194 117.451 111.194 118.515H111.172Z" fill="#FFB347"/>
<path d="M155.33 91.5532H110.125L117.947 77.2686H148.065L155.33 91.5532Z" fill="#FFB347"/>
<path d="M95.0664 158.966V132.646H101.949L111.728 149.142V132.646H118.273V158.966H111.352L101.611 143.174V158.966H95.0664Z" fill="white"/>
<path d="M121.137 158.966L130.766 132.646H138.364L147.992 158.966H141.26L139.53 153.998H129.6L127.832 158.966H121.137ZM131.368 148.883H137.762L134.602 139.616L131.368 148.883Z" fill="white"/>
<path d="M154.605 158.966L144.939 132.646H151.671L158.404 151.7L165.098 132.646H171.831L162.127 158.966H154.605Z" fill="white"/>
</svg>
